<?xml version="1.0" encoding="UTF-8" standalone="no"?>
<!DOCTYPE svg PUBLIC "-//W3C//DTD SVG 1.1//EN"
 "http://www.w3.org/Graphics/SVG/1.1/DTD/svg11.dtd">
<!-- Generated by graphviz version 2.42.4 (0)
 -->
<!-- Title: DomainERD Pages: 1 -->
<svg width="1303pt" height="1966pt"
 viewBox="0.00 0.00 1303.20 1966.20" xmlns="http://www.w3.org/2000/svg" xmlns:xlink="http://www.w3.org/1999/xlink">
<g id="graph0" class="graph" transform="scale(1 1) rotate(0) translate(21.6 1944.6)">
<title>DomainERD</title>
<polygon fill="white" stroke="transparent" points="-21.6,21.6 -21.6,-1944.6 1281.6,-1944.6 1281.6,21.6 -21.6,21.6"/>
<text text-anchor="middle" x="630" y="-1904.6" font-family="Arial" font-size="18.00" fill="#17365d">ABC Retail Phase2 ERD Logistics SupplyChain</text>
<!-- inventory.StockCountItems -->
<g id="node1" class="node">
<title>inventory.StockCountItems</title>
<polygon fill="#17365d" stroke="transparent" points="312,-1794.5 312,-1819.5 498,-1819.5 498,-1794.5 312,-1794.5"/>
<text text-anchor="start" x="317" y="-1804.3" font-family="Arial" font-weight="bold" font-size="14.00" fill="white">inventory.StockCountItems</text>
<text text-anchor="start" x="317" y="-1782.3" font-family="Arial" font-size="9.00">StockCountItemID</text>
<text text-anchor="start" x="317" y="-1762.3" font-family="Arial" font-size="9.00">StockCountID</text>
<text text-anchor="start" x="317" y="-1742.3" font-family="Arial" font-size="9.00">ProductID</text>
<text text-anchor="start" x="317" y="-1722.3" font-family="Arial" font-size="9.00">SystemQuantity</text>
<text text-anchor="start" x="317" y="-1702.3" font-family="Arial" font-size="9.00">CountedQuantity</text>
<text text-anchor="start" x="317" y="-1682.3" font-family="Arial" font-size="9.00">VarianceQuantity</text>
<text text-anchor="start" x="317" y="-1662.3" font-family="Arial" font-size="9.00">UnitCost</text>
<text text-anchor="start" x="317" y="-1642.3" font-family="Arial" font-size="9.00">VarianceValue</text>
<text text-anchor="start" x="317" y="-1622.3" font-family="Arial" font-size="9.00">... +3 columns</text>
<polygon fill="none" stroke="#17365d" points="311,-1614 311,-1821 499,-1821 499,-1614 311,-1614"/>
</g>
<!-- inventory.StockCounts -->
<g id="node2" class="node">
<title>inventory.StockCounts</title>
<polygon fill="#17365d" stroke="transparent" points="703.5,-1796.5 703.5,-1821.5 861.5,-1821.5 861.5,-1796.5 703.5,-1796.5"/>
<text text-anchor="start" x="708.5" y="-1806.3" font-family="Arial" font-weight="bold" font-size="14.00" fill="white">inventory.StockCounts</text>
<text text-anchor="start" x="708.5" y="-1784.3" font-family="Arial" font-size="9.00">StockCountID</text>
<text text-anchor="start" x="708.5" y="-1764.3" font-family="Arial" font-size="9.00">CountNumber</text>
<text text-anchor="start" x="708.5" y="-1744.3" font-family="Arial" font-size="9.00">WarehouseID</text>
<text text-anchor="start" x="708.5" y="-1724.3" font-family="Arial" font-size="9.00">BranchID</text>
<text text-anchor="start" x="708.5" y="-1704.3" font-family="Arial" font-size="9.00">CountDate</text>
<text text-anchor="start" x="708.5" y="-1684.3" font-family="Arial" font-size="9.00">CountType</text>
<text text-anchor="start" x="708.5" y="-1664.3" font-family="Arial" font-size="9.00">CountStatus</text>
<text text-anchor="start" x="708.5" y="-1644.3" font-family="Arial" font-size="9.00">CountSupervisorID</text>
<text text-anchor="start" x="708.5" y="-1624.3" font-family="Arial" font-size="9.00">... +3 columns</text>
<polygon fill="none" stroke="#17365d" points="702.5,-1616 702.5,-1823 862.5,-1823 862.5,-1616 702.5,-1616"/>
</g>
<!-- inventory.StockCountItems&#45;&gt;inventory.StockCounts -->
<g id="edge21" class="edge">
<title>inventory.StockCountItems&#45;&gt;inventory.StockCounts</title>
<path fill="none" stroke="#667788" d="M499.3,-1718C559.31,-1718.32 636.72,-1718.73 695.28,-1719.04"/>
<polygon fill="#667788" stroke="#667788" points="695.32,-1721.49 702.33,-1719.08 695.34,-1716.59 695.32,-1721.49"/>
<text text-anchor="middle" x="591.5" y="-1721.1" font-family="Arial" font-size="8.00">StockCountID</text>
</g>
<!-- hr.Employees -->
<g id="node15" class="node">
<title>hr.Employees</title>
<polygon fill="#fff2cc" stroke="transparent" points="1108.5,-1446.5 1108.5,-1471.5 1207.5,-1471.5 1207.5,-1446.5 1108.5,-1446.5"/>
<text text-anchor="start" x="1113.5" y="-1456.3" font-family="Arial" font-weight="bold" font-size="14.00" fill="#1f1f1f">hr.Employees</text>
<text text-anchor="start" x="1120" y="-1434.3" font-family="Arial" font-size="9.00">Phase 1 reference</text>
<polygon fill="none" stroke="#d9a300" points="1107,-1426 1107,-1473 1208,-1473 1208,-1426 1107,-1426"/>
</g>
<!-- inventory.StockCountItems&#45;&gt;hr.Employees -->
<g id="edge23" class="edge">
<title>inventory.StockCountItems&#45;&gt;hr.Employees</title>
<path fill="none" stroke="#667788" d="M499.29,-1658.71C527.9,-1640.68 552,-1625.5 552,-1625.5 552,-1625.5 664,-1594.5 664,-1594.5 664,-1594.5 901,-1543.5 901,-1543.5 901,-1543.5 1025.03,-1497.87 1100.26,-1470.19"/>
<polygon fill="#667788" stroke="#667788" points="1101.21,-1472.45 1106.93,-1467.74 1099.52,-1467.85 1101.21,-1472.45"/>
<text text-anchor="middle" x="782.5" y="-1597.1" font-family="Arial" font-size="8.00">InvestigatedByEmployeeID</text>
</g>
<!-- product.Products -->
<g id="node20" class="node">
<title>product.Products</title>
<polygon fill="#fff2cc" stroke="transparent" points="721.5,-1868.5 721.5,-1893.5 844.5,-1893.5 844.5,-1868.5 721.5,-1868.5"/>
<text text-anchor="start" x="726.5" y="-1878.3" font-family="Arial" font-weight="bold" font-size="14.00" fill="#1f1f1f">product.Products</text>
<text text-anchor="start" x="745" y="-1856.3" font-family="Arial" font-size="9.00">Phase 1 reference</text>
<polygon fill="none" stroke="#d9a300" points="720,-1848 720,-1895 845,-1895 845,-1848 720,-1848"/>
</g>
<!-- inventory.StockCountItems&#45;&gt;product.Products -->
<g id="edge22" class="edge">
<title>inventory.StockCountItems&#45;&gt;product.Products</title>
<path fill="none" stroke="#667788" d="M499.14,-1760.1C573.04,-1793.9 664,-1835.5 664,-1835.5 664,-1835.5 687.23,-1842.62 713.03,-1850.52"/>
<polygon fill="#667788" stroke="#667788" points="712.59,-1852.95 720,-1852.66 714.02,-1848.26 712.59,-1852.95"/>
<text text-anchor="middle" x="591.5" y="-1820.1" font-family="Arial" font-size="8.00">ProductID</text>
</g>
<!-- core.Branches -->
<g id="node12" class="node">
<title>core.Branches</title>
<polygon fill="#fff2cc" stroke="transparent" points="1105.5,-536.5 1105.5,-561.5 1209.5,-561.5 1209.5,-536.5 1105.5,-536.5"/>
<text text-anchor="start" x="1110.5" y="-546.3" font-family="Arial" font-weight="bold" font-size="14.00" fill="#1f1f1f">core.Branches</text>
<text text-anchor="start" x="1119.5" y="-524.3" font-family="Arial" font-size="9.00">Phase 1 reference</text>
<polygon fill="none" stroke="#d9a300" points="1104.5,-516 1104.5,-563 1210.5,-563 1210.5,-516 1104.5,-516"/>
</g>
<!-- inventory.StockCounts&#45;&gt;core.Branches -->
<g id="edge18" class="edge">
<title>inventory.StockCounts&#45;&gt;core.Branches</title>
<path fill="none" stroke="#667788" d="M862.53,-1636.77C883.78,-1614.53 901,-1596.5 901,-1596.5 901,-1596.5 1022,-1405.5 1022,-1405.5 1022,-1405.5 1055,-747.5 1055,-747.5 1055,-747.5 1113.59,-627.43 1141.74,-569.74"/>
<polygon fill="#667788" stroke="#667788" points="1143.99,-570.73 1144.86,-563.36 1139.58,-568.58 1143.99,-570.73"/>
<text text-anchor="middle" x="978" y="-1542.1" font-family="Arial" font-size="8.00">BranchID</text>
</g>
<!-- inventory.StockCounts&#45;&gt;hr.Employees -->
<g id="edge19" class="edge">
<title>inventory.StockCounts&#45;&gt;hr.Employees</title>
<path fill="none" stroke="#667788" d="M862.72,-1678.97C898.97,-1660.42 934,-1642.5 934,-1642.5 934,-1642.5 1022,-1612.5 1022,-1612.5 1022,-1612.5 1093.69,-1525.62 1132.39,-1478.71"/>
<polygon fill="#667788" stroke="#667788" points="1134.38,-1480.16 1136.94,-1473.2 1130.6,-1477.04 1134.38,-1480.16"/>
<text text-anchor="middle" x="978" y="-1645.1" font-family="Arial" font-size="8.00">CountSupervisorID</text>
</g>
<!-- inventory.StockCounts&#45;&gt;hr.Employees -->
<g id="edge20" class="edge">
<title>inventory.StockCounts&#45;&gt;hr.Employees</title>
<path fill="none" stroke="#667788" d="M862.59,-1709.88C932.01,-1701.44 1022,-1690.5 1022,-1690.5 1022,-1690.5 1103.8,-1543.93 1139.82,-1479.4"/>
<polygon fill="#667788" stroke="#667788" points="1142.09,-1480.35 1143.36,-1473.05 1137.81,-1477.97 1142.09,-1480.35"/>
<text text-anchor="middle" x="978" y="-1703.1" font-family="Arial" font-size="8.00">ApprovedByEmployeeID</text>
</g>
<!-- inventory.Warehouses -->
<g id="node16" class="node">
<title>inventory.Warehouses</title>
<polygon fill="#fff2cc" stroke="transparent" points="1080.5,-1716.5 1080.5,-1741.5 1235.5,-1741.5 1235.5,-1716.5 1080.5,-1716.5"/>
<text text-anchor="start" x="1085.5" y="-1726.3" font-family="Arial" font-weight="bold" font-size="14.00" fill="#1f1f1f">inventory.Warehouses</text>
<text text-anchor="start" x="1120" y="-1704.3" font-family="Arial" font-size="9.00">Phase 1 reference</text>
<polygon fill="none" stroke="#d9a300" points="1079,-1696 1079,-1743 1236,-1743 1236,-1696 1079,-1696"/>
</g>
<!-- inventory.StockCounts&#45;&gt;inventory.Warehouses -->
<g id="edge17" class="edge">
<title>inventory.StockCounts&#45;&gt;inventory.Warehouses</title>
<path fill="none" stroke="#667788" d="M862.72,-1724.76C898.97,-1727.17 934,-1729.5 934,-1729.5 934,-1729.5 1022,-1729.5 1022,-1729.5 1022,-1729.5 1044.67,-1727.81 1071.4,-1725.83"/>
<polygon fill="#667788" stroke="#667788" points="1071.85,-1728.25 1078.65,-1725.29 1071.49,-1723.36 1071.85,-1728.25"/>
<text text-anchor="middle" x="978" y="-1732.1" font-family="Arial" font-size="8.00">WarehouseID</text>
</g>
<!-- logistics.Deliveries -->
<g id="node3" class="node">
<title>logistics.Deliveries</title>
<polygon fill="#17365d" stroke="transparent" points="339,-464.5 339,-489.5 472,-489.5 472,-464.5 339,-464.5"/>
<text text-anchor="start" x="344" y="-474.3" font-family="Arial" font-weight="bold" font-size="14.00" fill="white">logistics.Deliveries</text>
<text text-anchor="start" x="344" y="-452.3" font-family="Arial" font-size="9.00">DeliveryID</text>
<text text-anchor="start" x="344" y="-432.3" font-family="Arial" font-size="9.00">DeliveryNumber</text>
<text text-anchor="start" x="344" y="-412.3" font-family="Arial" font-size="9.00">SalesOrderID</text>
<text text-anchor="start" x="344" y="-392.3" font-family="Arial" font-size="9.00">CustomerID</text>
<text text-anchor="start" x="344" y="-372.3" font-family="Arial" font-size="9.00">BranchID</text>
<text text-anchor="start" x="344" y="-352.3" font-family="Arial" font-size="9.00">RouteID</text>
<text text-anchor="start" x="344" y="-332.3" font-family="Arial" font-size="9.00">VehicleID</text>
<text text-anchor="start" x="344" y="-312.3" font-family="Arial" font-size="9.00">DriverID</text>
<text text-anchor="start" x="344" y="-292.3" font-family="Arial" font-size="9.00">... +13 columns</text>
<polygon fill="none" stroke="#17365d" points="337.5,-284 337.5,-491 472.5,-491 472.5,-284 337.5,-284"/>
</g>
<!-- logistics.Drivers -->
<g id="node5" class="node">
<title>logistics.Drivers</title>
<polygon fill="#17365d" stroke="transparent" points="724.5,-1372.5 724.5,-1397.5 840.5,-1397.5 840.5,-1372.5 724.5,-1372.5"/>
<text text-anchor="start" x="729.5" y="-1382.3" font-family="Arial" font-weight="bold" font-size="14.00" fill="white">logistics.Drivers</text>
<text text-anchor="start" x="729.5" y="-1360.3" font-family="Arial" font-size="9.00">DriverID</text>
<text text-anchor="start" x="729.5" y="-1340.3" font-family="Arial" font-size="9.00">DriverCode</text>
<text text-anchor="start" x="729.5" y="-1320.3" font-family="Arial" font-size="9.00">EmployeeID</text>
<text text-anchor="start" x="729.5" y="-1300.3" font-family="Arial" font-size="9.00">LicenseNumber</text>
<text text-anchor="start" x="729.5" y="-1280.3" font-family="Arial" font-size="9.00">LicenseClass</text>
<text text-anchor="start" x="729.5" y="-1260.3" font-family="Arial" font-size="9.00">LicenseExpiryDate</text>
<text text-anchor="start" x="729.5" y="-1240.3" font-family="Arial" font-size="9.00">DriverStartDate</text>
<text text-anchor="start" x="729.5" y="-1220.3" font-family="Arial" font-size="9.00">DriverStatus</text>
<text text-anchor="start" x="729.5" y="-1200.3" font-family="Arial" font-size="9.00">... +3 columns</text>
<polygon fill="none" stroke="#17365d" points="723.5,-1192 723.5,-1399 841.5,-1399 841.5,-1192 723.5,-1192"/>
</g>
<!-- logistics.Deliveries&#45;&gt;logistics.Drivers -->
<g id="edge10" class="edge">
<title>logistics.Deliveries&#45;&gt;logistics.Drivers</title>
<path fill="none" stroke="#667788" d="M467.63,-491.12C494.07,-535.58 519,-577.5 519,-577.5 519,-577.5 664,-1179.5 664,-1179.5 664,-1179.5 690.44,-1205.6 718.24,-1233.05"/>
<polygon fill="#667788" stroke="#667788" points="716.74,-1235.01 723.44,-1238.18 720.18,-1231.52 716.74,-1235.01"/>
<text text-anchor="middle" x="591.5" y="-1036.1" font-family="Arial" font-size="8.00">DriverID</text>
</g>
<!-- logistics.Routes -->
<g id="node6" class="node">
<title>logistics.Routes</title>
<polygon fill="#17365d" stroke="transparent" points="725.5,-180.5 725.5,-205.5 840.5,-205.5 840.5,-180.5 725.5,-180.5"/>
<text text-anchor="start" x="730.5" y="-190.3" font-family="Arial" font-weight="bold" font-size="14.00" fill="white">logistics.Routes</text>
<text text-anchor="start" x="730.5" y="-168.3" font-family="Arial" font-size="9.00">RouteID</text>
<text text-anchor="start" x="730.5" y="-148.3" font-family="Arial" font-size="9.00">RouteCode</text>
<text text-anchor="start" x="730.5" y="-128.3" font-family="Arial" font-size="9.00">RouteName</text>
<text text-anchor="start" x="730.5" y="-108.3" font-family="Arial" font-size="9.00">OriginBranchID</text>
<text text-anchor="start" x="730.5" y="-88.3" font-family="Arial" font-size="9.00">DestinationCity</text>
<text text-anchor="start" x="730.5" y="-68.3" font-family="Arial" font-size="9.00">DestinationRegionID</text>
<text text-anchor="start" x="730.5" y="-48.3" font-family="Arial" font-size="9.00">DistanceKM</text>
<text text-anchor="start" x="730.5" y="-28.3" font-family="Arial" font-size="9.00">StandardTravelHours</text>
<text text-anchor="start" x="730.5" y="-8.3" font-family="Arial" font-size="9.00">... +3 columns</text>
<polygon fill="none" stroke="#17365d" points="724,0 724,-207 841,-207 841,0 724,0"/>
</g>
<!-- logistics.Deliveries&#45;&gt;logistics.Routes -->
<g id="edge8" class="edge">
<title>logistics.Deliveries&#45;&gt;logistics.Routes</title>
<path fill="none" stroke="#667788" d="M472.71,-319.02C497.18,-293.9 519,-271.5 519,-271.5 519,-271.5 552,-229.5 552,-229.5 552,-229.5 649.51,-175.97 717.41,-138.69"/>
<polygon fill="#667788" stroke="#667788" points="718.93,-140.65 723.88,-135.13 716.57,-136.35 718.93,-140.65"/>
<text text-anchor="middle" x="591.5" y="-232.1" font-family="Arial" font-size="8.00">RouteID</text>
</g>
<!-- logistics.Vehicles -->
<g id="node8" class="node">
<title>logistics.Vehicles</title>
<polygon fill="#17365d" stroke="transparent" points="721.5,-616.5 721.5,-641.5 844.5,-641.5 844.5,-616.5 721.5,-616.5"/>
<text text-anchor="start" x="726.5" y="-626.3" font-family="Arial" font-weight="bold" font-size="14.00" fill="white">logistics.Vehicles</text>
<text text-anchor="start" x="726.5" y="-604.3" font-family="Arial" font-size="9.00">VehicleID</text>
<text text-anchor="start" x="726.5" y="-584.3" font-family="Arial" font-size="9.00">VehicleCode</text>
<text text-anchor="start" x="726.5" y="-564.3" font-family="Arial" font-size="9.00">RegistrationNumber</text>
<text text-anchor="start" x="726.5" y="-544.3" font-family="Arial" font-size="9.00">VehicleType</text>
<text text-anchor="start" x="726.5" y="-524.3" font-family="Arial" font-size="9.00">Make</text>
<text text-anchor="start" x="726.5" y="-504.3" font-family="Arial" font-size="9.00">Model</text>
<text text-anchor="start" x="726.5" y="-484.3" font-family="Arial" font-size="9.00">ModelYear</text>
<text text-anchor="start" x="726.5" y="-464.3" font-family="Arial" font-size="9.00">CapacityKG</text>
<text text-anchor="start" x="726.5" y="-444.3" font-family="Arial" font-size="9.00">... +10 columns</text>
<polygon fill="none" stroke="#17365d" points="720,-436 720,-643 845,-643 845,-436 720,-436"/>
</g>
<!-- logistics.Deliveries&#45;&gt;logistics.Vehicles -->
<g id="edge9" class="edge">
<title>logistics.Deliveries&#45;&gt;logistics.Vehicles</title>
<path fill="none" stroke="#667788" d="M472.7,-414.5C540.48,-441.94 644.96,-484.23 713.28,-511.89"/>
<polygon fill="#667788" stroke="#667788" points="712.37,-514.16 719.78,-514.52 714.21,-509.62 712.37,-514.16"/>
<text text-anchor="middle" x="591.5" y="-479.1" font-family="Arial" font-size="8.00">VehicleID</text>
</g>
<!-- logistics.Deliveries&#45;&gt;core.Branches -->
<g id="edge7" class="edge">
<title>logistics.Deliveries&#45;&gt;core.Branches</title>
<path fill="none" stroke="#667788" d="M472.78,-357.22C549.22,-322.55 664,-270.5 664,-270.5 664,-270.5 901,-270.5 901,-270.5 901,-270.5 1062.76,-440.8 1128.86,-510.4"/>
<polygon fill="#667788" stroke="#667788" points="1127.23,-512.24 1133.83,-515.63 1130.78,-508.87 1127.23,-512.24"/>
<text text-anchor="middle" x="782.5" y="-273.1" font-family="Arial" font-size="8.00">BranchID</text>
</g>
<!-- crm.Customers -->
<g id="node14" class="node">
<title>crm.Customers</title>
<polygon fill="#fff2cc" stroke="transparent" points="727.5,-384.5 727.5,-409.5 838.5,-409.5 838.5,-384.5 727.5,-384.5"/>
<text text-anchor="start" x="732.5" y="-394.3" font-family="Arial" font-weight="bold" font-size="14.00" fill="#1f1f1f">crm.Customers</text>
<text text-anchor="start" x="745" y="-372.3" font-family="Arial" font-size="9.00">Phase 1 reference</text>
<polygon fill="none" stroke="#d9a300" points="726,-364 726,-411 839,-411 839,-364 726,-364"/>
</g>
<!-- logistics.Deliveries&#45;&gt;crm.Customers -->
<g id="edge6" class="edge">
<title>logistics.Deliveries&#45;&gt;crm.Customers</title>
<path fill="none" stroke="#667788" d="M472.7,-387.5C542.24,-387.5 650.41,-387.5 718.53,-387.5"/>
<polygon fill="#667788" stroke="#667788" points="718.81,-389.95 725.81,-387.5 718.81,-385.05 718.81,-389.95"/>
<text text-anchor="middle" x="591.5" y="-390.1" font-family="Arial" font-size="8.00">CustomerID</text>
</g>
<!-- sales.SalesOrders -->
<g id="node22" class="node">
<title>sales.SalesOrders</title>
<polygon fill="#fff2cc" stroke="transparent" points="718.5,-312.5 718.5,-337.5 846.5,-337.5 846.5,-312.5 718.5,-312.5"/>
<text text-anchor="start" x="723.5" y="-322.3" font-family="Arial" font-weight="bold" font-size="14.00" fill="#1f1f1f">sales.SalesOrders</text>
<text text-anchor="start" x="744.5" y="-300.3" font-family="Arial" font-size="9.00">Phase 1 reference</text>
<polygon fill="none" stroke="#d9a300" points="717.5,-292 717.5,-339 847.5,-339 847.5,-292 717.5,-292"/>
</g>
<!-- logistics.Deliveries&#45;&gt;sales.SalesOrders -->
<g id="edge5" class="edge">
<title>logistics.Deliveries&#45;&gt;sales.SalesOrders</title>
<path fill="none" stroke="#667788" d="M472.7,-374.71C539.53,-361.9 642.03,-342.24 710.38,-329.14"/>
<polygon fill="#667788" stroke="#667788" points="710.89,-331.53 717.3,-327.81 709.97,-326.72 710.89,-331.53"/>
<text text-anchor="middle" x="591.5" y="-360.1" font-family="Arial" font-size="8.00">SalesOrderID</text>
</g>
<!-- logistics.DeliveryItems -->
<g id="node4" class="node">
<title>logistics.DeliveryItems</title>
<polygon fill="#17365d" stroke="transparent" points="1,-464.5 1,-489.5 159,-489.5 159,-464.5 1,-464.5"/>
<text text-anchor="start" x="6" y="-474.3" font-family="Arial" font-weight="bold" font-size="14.00" fill="white">logistics.DeliveryItems</text>
<text text-anchor="start" x="6" y="-452.3" font-family="Arial" font-size="9.00">DeliveryItemID</text>
<text text-anchor="start" x="6" y="-432.3" font-family="Arial" font-size="9.00">DeliveryID</text>
<text text-anchor="start" x="6" y="-412.3" font-family="Arial" font-size="9.00">SalesOrderItemID</text>
<text text-anchor="start" x="6" y="-392.3" font-family="Arial" font-size="9.00">ProductID</text>
<text text-anchor="start" x="6" y="-372.3" font-family="Arial" font-size="9.00">QuantityPlanned</text>
<text text-anchor="start" x="6" y="-352.3" font-family="Arial" font-size="9.00">QuantityDelivered</text>
<text text-anchor="start" x="6" y="-332.3" font-family="Arial" font-size="9.00">DamageQuantity</text>
<text text-anchor="start" x="6" y="-312.3" font-family="Arial" font-size="9.00">ReturnQuantity</text>
<text text-anchor="start" x="6" y="-292.3" font-family="Arial" font-size="9.00">... +2 columns</text>
<polygon fill="none" stroke="#17365d" points="0,-284 0,-491 160,-491 160,-284 0,-284"/>
</g>
<!-- logistics.DeliveryItems&#45;&gt;logistics.Deliveries -->
<g id="edge11" class="edge">
<title>logistics.DeliveryItems&#45;&gt;logistics.Deliveries</title>
<path fill="none" stroke="#667788" d="M160.01,-387.5C211.92,-387.5 279.37,-387.5 330.19,-387.5"/>
<polygon fill="#667788" stroke="#667788" points="330.25,-389.95 337.25,-387.5 330.25,-385.05 330.25,-389.95"/>
<text text-anchor="middle" x="225.5" y="-390.1" font-family="Arial" font-size="8.00">DeliveryID</text>
</g>
<!-- logistics.DeliveryItems&#45;&gt;product.Products -->
<g id="edge13" class="edge">
<title>logistics.DeliveryItems&#45;&gt;product.Products</title>
<path fill="none" stroke="#667788" d="M96.06,-491.2C144.17,-822.46 291,-1833.5 291,-1833.5 291,-1833.5 577.78,-1855.72 712.78,-1866.18"/>
<polygon fill="#667788" stroke="#667788" points="712.71,-1868.63 719.87,-1866.73 713.08,-1863.74 712.71,-1868.63"/>
<text text-anchor="middle" x="405" y="-1853.1" font-family="Arial" font-size="8.00">ProductID</text>
</g>
<!-- sales.SalesOrderItems -->
<g id="node21" class="node">
<title>sales.SalesOrderItems</title>
<polygon fill="#fff2cc" stroke="transparent" points="327,-232.5 327,-257.5 484,-257.5 484,-232.5 327,-232.5"/>
<text text-anchor="start" x="332" y="-242.3" font-family="Arial" font-weight="bold" font-size="14.00" fill="#1f1f1f">sales.SalesOrderItems</text>
<text text-anchor="start" x="367.5" y="-220.3" font-family="Arial" font-size="9.00">Phase 1 reference</text>
<polygon fill="none" stroke="#d9a300" points="325.5,-212 325.5,-259 484.5,-259 484.5,-212 325.5,-212"/>
</g>
<!-- logistics.DeliveryItems&#45;&gt;sales.SalesOrderItems -->
<g id="edge12" class="edge">
<title>logistics.DeliveryItems&#45;&gt;sales.SalesOrderItems</title>
<path fill="none" stroke="#667788" d="M160.09,-343.81C219.62,-310.93 291,-271.5 291,-271.5 291,-271.5 305.09,-267.01 323.32,-261.2"/>
<polygon fill="#667788" stroke="#667788" points="324.28,-263.47 330.2,-259.01 322.79,-258.8 324.28,-263.47"/>
<text text-anchor="middle" x="225.5" y="-326.1" font-family="Arial" font-size="8.00">SalesOrderItemID</text>
</g>
<!-- logistics.Drivers&#45;&gt;hr.Employees -->
<g id="edge4" class="edge">
<title>logistics.Drivers&#45;&gt;hr.Employees</title>
<path fill="none" stroke="#667788" d="M841.78,-1319.56C912.44,-1348.74 1030.71,-1397.56 1100.38,-1426.33"/>
<polygon fill="#667788" stroke="#667788" points="1099.56,-1428.64 1106.97,-1429.05 1101.43,-1424.11 1099.56,-1428.64"/>
<text text-anchor="middle" x="978" y="-1393.1" font-family="Arial" font-size="8.00">EmployeeID</text>
</g>
<!-- logistics.Routes&#45;&gt;core.Branches -->
<g id="edge1" class="edge">
<title>logistics.Routes&#45;&gt;core.Branches</title>
<path fill="none" stroke="#667788" d="M841.23,-134C911.82,-171.29 1022,-229.5 1022,-229.5 1022,-229.5 1109.53,-431.24 1143.37,-509.23"/>
<polygon fill="#667788" stroke="#667788" points="1141.25,-510.5 1146.28,-515.95 1145.74,-508.55 1141.25,-510.5"/>
<text text-anchor="middle" x="978" y="-232.1" font-family="Arial" font-size="8.00">OriginBranchID</text>
</g>
<!-- core.Regions -->
<g id="node13" class="node">
<title>core.Regions</title>
<polygon fill="#fff2cc" stroke="transparent" points="1109.5,-100.5 1109.5,-125.5 1205.5,-125.5 1205.5,-100.5 1109.5,-100.5"/>
<text text-anchor="start" x="1114.5" y="-110.3" font-family="Arial" font-weight="bold" font-size="14.00" fill="#1f1f1f">core.Regions</text>
<text text-anchor="start" x="1119.5" y="-88.3" font-family="Arial" font-size="9.00">Phase 1 reference</text>
<polygon fill="none" stroke="#d9a300" points="1108.5,-80 1108.5,-127 1206.5,-127 1206.5,-80 1108.5,-80"/>
</g>
<!-- logistics.Routes&#45;&gt;core.Regions -->
<g id="edge2" class="edge">
<title>logistics.Routes&#45;&gt;core.Regions</title>
<path fill="none" stroke="#667788" d="M841.37,-103.5C912.29,-103.5 1031.61,-103.5 1101.29,-103.5"/>
<polygon fill="#667788" stroke="#667788" points="1101.29,-105.95 1108.29,-103.5 1101.29,-101.05 1101.29,-105.95"/>
<text text-anchor="middle" x="978" y="-106.1" font-family="Arial" font-size="8.00">DestinationRegionID</text>
</g>
<!-- logistics.VehicleMaintenance -->
<g id="node7" class="node">
<title>logistics.VehicleMaintenance</title>
<polygon fill="#17365d" stroke="transparent" points="306,-770.5 306,-795.5 504,-795.5 504,-770.5 306,-770.5"/>
<text text-anchor="start" x="311" y="-780.3" font-family="Arial" font-weight="bold" font-size="14.00" fill="white">logistics.VehicleMaintenance</text>
<text text-anchor="start" x="311" y="-758.3" font-family="Arial" font-size="9.00">MaintenanceID</text>
<text text-anchor="start" x="311" y="-738.3" font-family="Arial" font-size="9.00">MaintenanceNumber</text>
<text text-anchor="start" x="311" y="-718.3" font-family="Arial" font-size="9.00">VehicleID</text>
<text text-anchor="start" x="311" y="-698.3" font-family="Arial" font-size="9.00">MaintenanceType</text>
<text text-anchor="start" x="311" y="-678.3" font-family="Arial" font-size="9.00">ReportedDate</text>
<text text-anchor="start" x="311" y="-658.3" font-family="Arial" font-size="9.00">ScheduledDate</text>
<text text-anchor="start" x="311" y="-638.3" font-family="Arial" font-size="9.00">StartDate</text>
<text text-anchor="start" x="311" y="-618.3" font-family="Arial" font-size="9.00">CompletionDate</text>
<text text-anchor="start" x="311" y="-598.3" font-family="Arial" font-size="9.00">... +8 columns</text>
<polygon fill="none" stroke="#17365d" points="305,-590 305,-797 505,-797 505,-590 305,-590"/>
</g>
<!-- logistics.VehicleMaintenance&#45;&gt;logistics.Vehicles -->
<g id="edge14" class="edge">
<title>logistics.VehicleMaintenance&#45;&gt;logistics.Vehicles</title>
<path fill="none" stroke="#667788" d="M505.15,-652.84C570.74,-625.94 655.05,-591.36 713.21,-567.51"/>
<polygon fill="#667788" stroke="#667788" points="714.26,-569.72 719.81,-564.8 712.41,-565.19 714.26,-569.72"/>
<text text-anchor="middle" x="591.5" y="-632.1" font-family="Arial" font-size="8.00">VehicleID</text>
</g>
<!-- logistics.VehicleMaintenance&#45;&gt;hr.Employees -->
<g id="edge16" class="edge">
<title>logistics.VehicleMaintenance&#45;&gt;hr.Employees</title>
<path fill="none" stroke="#667788" d="M443.24,-797.14C514.69,-995.97 664,-1411.5 664,-1411.5 664,-1411.5 969.69,-1435.09 1099.4,-1445.09"/>
<polygon fill="#667788" stroke="#667788" points="1099.4,-1447.55 1106.57,-1445.65 1099.78,-1442.67 1099.4,-1447.55"/>
<text text-anchor="middle" x="782.5" y="-1431.1" font-family="Arial" font-size="8.00">ApprovedByEmployeeID</text>
</g>
<!-- procurement.Suppliers -->
<g id="node19" class="node">
<title>procurement.Suppliers</title>
<polygon fill="#fff2cc" stroke="transparent" points="1078.5,-780.5 1078.5,-805.5 1237.5,-805.5 1237.5,-780.5 1078.5,-780.5"/>
<text text-anchor="start" x="1083.5" y="-790.3" font-family="Arial" font-weight="bold" font-size="14.00" fill="#1f1f1f">procurement.Suppliers</text>
<text text-anchor="start" x="1120" y="-768.3" font-family="Arial" font-size="9.00">Phase 1 reference</text>
<polygon fill="none" stroke="#d9a300" points="1077,-760 1077,-807 1238,-807 1238,-760 1077,-760"/>
</g>
<!-- logistics.VehicleMaintenance&#45;&gt;procurement.Suppliers -->
<g id="edge15" class="edge">
<title>logistics.VehicleMaintenance&#45;&gt;procurement.Suppliers</title>
<path fill="none" stroke="#667788" d="M505.28,-696.11C649.78,-699.9 901,-706.5 901,-706.5 901,-706.5 997.02,-735.44 1071.33,-757.83"/>
<polygon fill="#667788" stroke="#667788" points="1071.04,-760.3 1078.45,-759.98 1072.46,-755.61 1071.04,-760.3"/>
<text text-anchor="middle" x="782.5" y="-709.1" font-family="Arial" font-size="8.00">SupplierID</text>
</g>
<!-- logistics.Vehicles&#45;&gt;core.Branches -->
<g id="edge3" class="edge">
<title>logistics.Vehicles&#45;&gt;core.Branches</title>
<path fill="none" stroke="#667788" d="M845.09,-539.5C914.97,-539.5 1028.14,-539.5 1097.09,-539.5"/>
<polygon fill="#667788" stroke="#667788" points="1097.45,-541.95 1104.45,-539.5 1097.45,-537.05 1097.45,-541.95"/>
<text text-anchor="middle" x="978" y="-542.1" font-family="Arial" font-size="8.00">AssignedBranchID</text>
</g>
<!-- procurement.GoodsReceiptItems -->
<g id="node9" class="node">
<title>procurement.GoodsReceiptItems</title>
<polygon fill="#17365d" stroke="transparent" points="292,-1562.5 292,-1587.5 518,-1587.5 518,-1562.5 292,-1562.5"/>
<text text-anchor="start" x="297" y="-1572.3" font-family="Arial" font-weight="bold" font-size="14.00" fill="white">procurement.GoodsReceiptItems</text>
<text text-anchor="start" x="297" y="-1550.3" font-family="Arial" font-size="9.00">GoodsReceiptItemID</text>
<text text-anchor="start" x="297" y="-1530.3" font-family="Arial" font-size="9.00">GoodsReceiptID</text>
<text text-anchor="start" x="297" y="-1510.3" font-family="Arial" font-size="9.00">PurchaseOrderItemID</text>
<text text-anchor="start" x="297" y="-1490.3" font-family="Arial" font-size="9.00">ProductID</text>
<text text-anchor="start" x="297" y="-1470.3" font-family="Arial" font-size="9.00">QuantityReceived</text>
<text text-anchor="start" x="297" y="-1450.3" font-family="Arial" font-size="9.00">QuantityAccepted</text>
<text text-anchor="start" x="297" y="-1430.3" font-family="Arial" font-size="9.00">QuantityRejected</text>
<text text-anchor="start" x="297" y="-1410.3" font-family="Arial" font-size="9.00">UnitCost</text>
<text text-anchor="start" x="297" y="-1390.3" font-family="Arial" font-size="9.00">... +1 columns</text>
<polygon fill="none" stroke="#17365d" points="291,-1382 291,-1589 519,-1589 519,-1382 291,-1382"/>
</g>
<!-- procurement.GoodsReceipts -->
<g id="node10" class="node">
<title>procurement.GoodsReceipts</title>
<polygon fill="#17365d" stroke="transparent" points="684.5,-908.5 684.5,-933.5 881.5,-933.5 881.5,-908.5 684.5,-908.5"/>
<text text-anchor="start" x="689.5" y="-918.3" font-family="Arial" font-weight="bold" font-size="14.00" fill="white">procurement.GoodsReceipts</text>
<text text-anchor="start" x="689.5" y="-896.3" font-family="Arial" font-size="9.00">GoodsReceiptID</text>
<text text-anchor="start" x="689.5" y="-876.3" font-family="Arial" font-size="9.00">ReceiptNumber</text>
<text text-anchor="start" x="689.5" y="-856.3" font-family="Arial" font-size="9.00">PurchaseOrderID</text>
<text text-anchor="start" x="689.5" y="-836.3" font-family="Arial" font-size="9.00">SupplierID</text>
<text text-anchor="start" x="689.5" y="-816.3" font-family="Arial" font-size="9.00">WarehouseID</text>
<text text-anchor="start" x="689.5" y="-796.3" font-family="Arial" font-size="9.00">BranchID</text>
<text text-anchor="start" x="689.5" y="-776.3" font-family="Arial" font-size="9.00">ReceiptDate</text>
<text text-anchor="start" x="689.5" y="-756.3" font-family="Arial" font-size="9.00">ReceivedByEmployeeID</text>
<text text-anchor="start" x="689.5" y="-736.3" font-family="Arial" font-size="9.00">... +5 columns</text>
<polygon fill="none" stroke="#17365d" points="683,-728 683,-935 882,-935 882,-728 683,-728"/>
</g>
<!-- procurement.GoodsReceiptItems&#45;&gt;procurement.GoodsReceipts -->
<g id="edge29" class="edge">
<title>procurement.GoodsReceiptItems&#45;&gt;procurement.GoodsReceipts</title>
<path fill="none" stroke="#667788" d="M457.2,-1381.97C523.59,-1247.7 631,-1030.5 631,-1030.5 631,-1030.5 664,-947.5 664,-947.5 664,-947.5 669.39,-942.18 677.87,-933.81"/>
<polygon fill="#667788" stroke="#667788" points="679.62,-935.52 682.88,-928.86 676.18,-932.04 679.62,-935.52"/>
<text text-anchor="middle" x="591.5" y="-1180.1" font-family="Arial" font-size="8.00">GoodsReceiptID</text>
</g>
<!-- procurement.PurchaseOrderItems -->
<g id="node17" class="node">
<title>procurement.PurchaseOrderItems</title>
<polygon fill="#fff2cc" stroke="transparent" points="666.5,-1504.5 666.5,-1529.5 898.5,-1529.5 898.5,-1504.5 666.5,-1504.5"/>
<text text-anchor="start" x="671.5" y="-1514.3" font-family="Arial" font-weight="bold" font-size="14.00" fill="#1f1f1f">procurement.PurchaseOrderItems</text>
<text text-anchor="start" x="744.5" y="-1492.3" font-family="Arial" font-size="9.00">Phase 1 reference</text>
<polygon fill="none" stroke="#d9a300" points="665.5,-1484 665.5,-1531 899.5,-1531 899.5,-1484 665.5,-1484"/>
</g>
<!-- procurement.GoodsReceiptItems&#45;&gt;procurement.PurchaseOrderItems -->
<g id="edge30" class="edge">
<title>procurement.GoodsReceiptItems&#45;&gt;procurement.PurchaseOrderItems</title>
<path fill="none" stroke="#667788" d="M519.17,-1492.13C563.04,-1494.7 613.39,-1497.65 658.17,-1500.27"/>
<polygon fill="#667788" stroke="#667788" points="658.18,-1502.73 665.31,-1500.69 658.47,-1497.84 658.18,-1502.73"/>
<text text-anchor="middle" x="591.5" y="-1500.1" font-family="Arial" font-size="8.00">PurchaseOrderItemID</text>
</g>
<!-- procurement.GoodsReceiptItems&#45;&gt;product.Products -->
<g id="edge31" class="edge">
<title>procurement.GoodsReceiptItems&#45;&gt;product.Products</title>
<path fill="none" stroke="#667788" d="M513.56,-1589.23C571.41,-1645.02 631,-1702.5 631,-1702.5 631,-1702.5 664,-1835.5 664,-1835.5 664,-1835.5 687.23,-1842.62 713.03,-1850.52"/>
<polygon fill="#667788" stroke="#667788" points="712.59,-1852.95 720,-1852.66 714.02,-1848.26 712.59,-1852.95"/>
<text text-anchor="middle" x="591.5" y="-1705.1" font-family="Arial" font-size="8.00">ProductID</text>
</g>
<!-- procurement.GoodsReceipts&#45;&gt;core.Branches -->
<g id="edge27" class="edge">
<title>procurement.GoodsReceipts&#45;&gt;core.Branches</title>
<path fill="none" stroke="#667788" d="M882.48,-754.02C960.98,-692.56 1066.25,-610.15 1120.63,-567.58"/>
<polygon fill="#667788" stroke="#667788" points="1122.36,-569.34 1126.36,-563.09 1119.34,-565.48 1122.36,-569.34"/>
<text text-anchor="middle" x="978" y="-714.1" font-family="Arial" font-size="8.00">BranchID</text>
</g>
<!-- procurement.GoodsReceipts&#45;&gt;hr.Employees -->
<g id="edge28" class="edge">
<title>procurement.GoodsReceipts&#45;&gt;hr.Employees</title>
<path fill="none" stroke="#667788" d="M882.12,-928.86C893.42,-940.02 901,-947.5 901,-947.5 901,-947.5 1086.17,-1311.32 1141.23,-1419.51"/>
<polygon fill="#667788" stroke="#667788" points="1139.16,-1420.83 1144.52,-1425.96 1143.53,-1418.61 1139.16,-1420.83"/>
<text text-anchor="middle" x="978" y="-1185.1" font-family="Arial" font-size="8.00">ReceivedByEmployeeID</text>
</g>
<!-- procurement.GoodsReceipts&#45;&gt;inventory.Warehouses -->
<g id="edge26" class="edge">
<title>procurement.GoodsReceipts&#45;&gt;inventory.Warehouses</title>
<path fill="none" stroke="#667788" d="M882.12,-928.86C893.42,-940.02 901,-947.5 901,-947.5 901,-947.5 934,-1651.5 934,-1651.5 934,-1651.5 1009.44,-1674.56 1072.47,-1693.82"/>
<polygon fill="#667788" stroke="#667788" points="1071.89,-1696.2 1079.3,-1695.91 1073.33,-1691.52 1071.89,-1696.2"/>
<text text-anchor="middle" x="978" y="-1679.1" font-family="Arial" font-size="8.00">WarehouseID</text>
</g>
<!-- procurement.PurchaseOrders -->
<g id="node18" class="node">
<title>procurement.PurchaseOrders</title>
<polygon fill="#fff2cc" stroke="transparent" points="1056.5,-858.5 1056.5,-883.5 1259.5,-883.5 1259.5,-858.5 1056.5,-858.5"/>
<text text-anchor="start" x="1061.5" y="-868.3" font-family="Arial" font-weight="bold" font-size="14.00" fill="#1f1f1f">procurement.PurchaseOrders</text>
<text text-anchor="start" x="1120" y="-846.3" font-family="Arial" font-size="9.00">Phase 1 reference</text>
<polygon fill="none" stroke="#d9a300" points="1055,-838 1055,-885 1260,-885 1260,-838 1055,-838"/>
</g>
<!-- procurement.GoodsReceipts&#45;&gt;procurement.PurchaseOrders -->
<g id="edge24" class="edge">
<title>procurement.GoodsReceipts&#45;&gt;procurement.PurchaseOrders</title>
<path fill="none" stroke="#667788" d="M882.48,-839.46C933.29,-843.55 995.31,-848.54 1047.49,-852.73"/>
<polygon fill="#667788" stroke="#667788" points="1047.61,-855.2 1054.78,-853.32 1048,-850.32 1047.61,-855.2"/>
<text text-anchor="middle" x="978" y="-852.1" font-family="Arial" font-size="8.00">PurchaseOrderID</text>
</g>
<!-- procurement.GoodsReceipts&#45;&gt;procurement.Suppliers -->
<g id="edge25" class="edge">
<title>procurement.GoodsReceipts&#45;&gt;procurement.Suppliers</title>
<path fill="none" stroke="#667788" d="M882.21,-800.67C910.57,-791.82 934,-784.5 934,-784.5 934,-784.5 1007.21,-784.17 1069.64,-783.89"/>
<polygon fill="#667788" stroke="#667788" points="1069.81,-786.34 1076.8,-783.86 1069.79,-781.44 1069.81,-786.34"/>
<text text-anchor="middle" x="978" y="-787.1" font-family="Arial" font-size="8.00">SupplierID</text>
</g>
<!-- procurement.SupplierPerformance -->
<g id="node11" class="node">
<title>procurement.SupplierPerformance</title>
<polygon fill="#17365d" stroke="transparent" points="665.5,-1140.5 665.5,-1165.5 900.5,-1165.5 900.5,-1140.5 665.5,-1140.5"/>
<text text-anchor="start" x="670.5" y="-1150.3" font-family="Arial" font-weight="bold" font-size="14.00" fill="white">procurement.SupplierPerformance</text>
<text text-anchor="start" x="670.5" y="-1128.3" font-family="Arial" font-size="9.00">SupplierPerformanceID</text>
<text text-anchor="start" x="670.5" y="-1108.3" font-family="Arial" font-size="9.00">SupplierID</text>
<text text-anchor="start" x="670.5" y="-1088.3" font-family="Arial" font-size="9.00">PeriodStart</text>
<text text-anchor="start" x="670.5" y="-1068.3" font-family="Arial" font-size="9.00">PeriodEnd</text>
<text text-anchor="start" x="670.5" y="-1048.3" font-family="Arial" font-size="9.00">OrdersPlaced</text>
<text text-anchor="start" x="670.5" y="-1028.3" font-family="Arial" font-size="9.00">OrdersDeliveredOnTime</text>
<text text-anchor="start" x="670.5" y="-1008.3" font-family="Arial" font-size="9.00">OrdersComplete</text>
<text text-anchor="start" x="670.5" y="-988.3" font-family="Arial" font-size="9.00">AverageLeadTimeDays</text>
<text text-anchor="start" x="670.5" y="-968.3" font-family="Arial" font-size="9.00">... +7 columns</text>
<polygon fill="none" stroke="#17365d" points="664,-960 664,-1167 901,-1167 901,-960 664,-960"/>
</g>
<!-- procurement.SupplierPerformance&#45;&gt;hr.Employees -->
<g id="edge33" class="edge">
<title>procurement.SupplierPerformance&#45;&gt;hr.Employees</title>
<path fill="none" stroke="#667788" d="M888.43,-1167.09C896.15,-1174.71 901,-1179.5 901,-1179.5 901,-1179.5 1062.76,-1350.44 1128.86,-1420.29"/>
<polygon fill="#667788" stroke="#667788" points="1127.24,-1422.14 1133.83,-1425.54 1130.79,-1418.77 1127.24,-1422.14"/>
<text text-anchor="middle" x="978" y="-1308.1" font-family="Arial" font-size="8.00">ReviewedByEmployeeID</text>
</g>
<!-- procurement.SupplierPerformance&#45;&gt;procurement.Suppliers -->
<g id="edge32" class="edge">
<title>procurement.SupplierPerformance&#45;&gt;procurement.Suppliers</title>
<path fill="none" stroke="#667788" d="M888.43,-959.91C896.15,-952.29 901,-947.5 901,-947.5 901,-947.5 934,-828.5 934,-828.5 934,-828.5 1007.21,-813.69 1069.64,-801.07"/>
<polygon fill="#667788" stroke="#667788" points="1070.43,-803.41 1076.8,-799.62 1069.45,-798.61 1070.43,-803.41"/>
<text text-anchor="middle" x="978" y="-831.1" font-family="Arial" font-size="8.00">SupplierID</text>
</g>
</g>
</svg>
