<?xml version="1.0" encoding="UTF-8" standalone="no"?>
<!DOCTYPE svg PUBLIC "-//W3C//DTD SVG 1.1//EN"
 "http://www.w3.org/Graphics/SVG/1.1/DTD/svg11.dtd">
<!-- Generated by graphviz version 2.42.4 (0)
 -->
<!-- Title: DomainERD Pages: 1 -->
<svg width="626pt" height="974pt"
 viewBox="0.00 0.00 626.20 974.20" xmlns="http://www.w3.org/2000/svg" xmlns:xlink="http://www.w3.org/1999/xlink">
<g id="graph0" class="graph" transform="scale(1 1) rotate(0) translate(21.6 952.6)">
<title>DomainERD</title>
<polygon fill="white" stroke="transparent" points="-21.6,21.6 -21.6,-952.6 604.6,-952.6 604.6,21.6 -21.6,21.6"/>
<text text-anchor="middle" x="291.5" y="-912.6" font-family="Arial" font-size="18.00" fill="#17365d">ABC Retail Phase2 ERD Customer Growth</text>
<!-- crm.LoyaltyTransactions -->
<g id="node1" class="node">
<title>crm.LoyaltyTransactions</title>
<polygon fill="#17365d" stroke="transparent" points="19.5,-876.5 19.5,-901.5 189.5,-901.5 189.5,-876.5 19.5,-876.5"/>
<text text-anchor="start" x="24.5" y="-886.3" font-family="Arial" font-weight="bold" font-size="14.00" fill="white">crm.LoyaltyTransactions</text>
<text text-anchor="start" x="24.5" y="-864.3" font-family="Arial" font-size="9.00">LoyaltyTransactionID</text>
<text text-anchor="start" x="24.5" y="-844.3" font-family="Arial" font-size="9.00">LoyaltyTransactionNumber</text>
<text text-anchor="start" x="24.5" y="-824.3" font-family="Arial" font-size="9.00">CustomerID</text>
<text text-anchor="start" x="24.5" y="-804.3" font-family="Arial" font-size="9.00">SalesOrderID</text>
<text text-anchor="start" x="24.5" y="-784.3" font-family="Arial" font-size="9.00">TransactionDate</text>
<text text-anchor="start" x="24.5" y="-764.3" font-family="Arial" font-size="9.00">TransactionType</text>
<text text-anchor="start" x="24.5" y="-744.3" font-family="Arial" font-size="9.00">Points</text>
<text text-anchor="start" x="24.5" y="-724.3" font-family="Arial" font-size="9.00">BalanceAfter</text>
<text text-anchor="start" x="24.5" y="-704.3" font-family="Arial" font-size="9.00">... +2 columns</text>
<polygon fill="none" stroke="#17365d" points="18.5,-696 18.5,-903 190.5,-903 190.5,-696 18.5,-696"/>
</g>
<!-- crm.Customers -->
<g id="node6" class="node">
<title>crm.Customers</title>
<polygon fill="#fff2cc" stroke="transparent" points="418,-601.5 418,-626.5 529,-626.5 529,-601.5 418,-601.5"/>
<text text-anchor="start" x="423" y="-611.3" font-family="Arial" font-weight="bold" font-size="14.00" fill="#1f1f1f">crm.Customers</text>
<text text-anchor="start" x="435.5" y="-589.3" font-family="Arial" font-size="9.00">Phase 1 reference</text>
<polygon fill="none" stroke="#d9a300" points="416.5,-581 416.5,-628 529.5,-628 529.5,-581 416.5,-581"/>
</g>
<!-- crm.LoyaltyTransactions&#45;&gt;crm.Customers -->
<g id="edge8" class="edge">
<title>crm.LoyaltyTransactions&#45;&gt;crm.Customers</title>
<path fill="none" stroke="#667788" d="M190.69,-768.76C254.2,-745.85 330,-718.5 330,-718.5 330,-718.5 395.02,-666.3 437.06,-632.55"/>
<polygon fill="#667788" stroke="#667788" points="438.65,-634.41 442.58,-628.12 435.59,-630.59 438.65,-634.41"/>
<text text-anchor="middle" x="286" y="-751.1" font-family="Arial" font-size="8.00">CustomerID</text>
</g>
<!-- sales.SalesOrders -->
<g id="node10" class="node">
<title>sales.SalesOrders</title>
<polygon fill="#fff2cc" stroke="transparent" points="409,-515.5 409,-540.5 537,-540.5 537,-515.5 409,-515.5"/>
<text text-anchor="start" x="414" y="-525.3" font-family="Arial" font-weight="bold" font-size="14.00" fill="#1f1f1f">sales.SalesOrders</text>
<text text-anchor="start" x="435" y="-503.3" font-family="Arial" font-size="9.00">Phase 1 reference</text>
<polygon fill="none" stroke="#d9a300" points="408,-495 408,-542 538,-542 538,-495 408,-495"/>
</g>
<!-- crm.LoyaltyTransactions&#45;&gt;sales.SalesOrders -->
<g id="edge9" class="edge">
<title>crm.LoyaltyTransactions&#45;&gt;sales.SalesOrders</title>
<path fill="none" stroke="#667788" d="M190.69,-725.12C254.2,-669.67 330,-603.5 330,-603.5 330,-603.5 363,-568.5 363,-568.5 363,-568.5 388,-557.03 414.06,-545.08"/>
<polygon fill="#667788" stroke="#667788" points="415.35,-547.18 420.69,-542.04 413.31,-542.73 415.35,-547.18"/>
<text text-anchor="middle" x="286" y="-680.1" font-family="Arial" font-size="8.00">SalesOrderID</text>
</g>
<!-- marketing.MarketingExpenses -->
<g id="node2" class="node">
<title>marketing.MarketingExpenses</title>
<polygon fill="#17365d" stroke="transparent" points="1.5,-180.5 1.5,-205.5 208.5,-205.5 208.5,-180.5 1.5,-180.5"/>
<text text-anchor="start" x="6.5" y="-190.3" font-family="Arial" font-weight="bold" font-size="14.00" fill="white">marketing.MarketingExpenses</text>
<text text-anchor="start" x="6.5" y="-168.3" font-family="Arial" font-size="9.00">MarketingExpenseID</text>
<text text-anchor="start" x="6.5" y="-148.3" font-family="Arial" font-size="9.00">MarketingExpenseNumber</text>
<text text-anchor="start" x="6.5" y="-128.3" font-family="Arial" font-size="9.00">CampaignID</text>
<text text-anchor="start" x="6.5" y="-108.3" font-family="Arial" font-size="9.00">ExpenseDate</text>
<text text-anchor="start" x="6.5" y="-88.3" font-family="Arial" font-size="9.00">ExpenseCategory</text>
<text text-anchor="start" x="6.5" y="-68.3" font-family="Arial" font-size="9.00">SupplierID</text>
<text text-anchor="start" x="6.5" y="-48.3" font-family="Arial" font-size="9.00">Amount</text>
<text text-anchor="start" x="6.5" y="-28.3" font-family="Arial" font-size="9.00">TaxAmount</text>
<text text-anchor="start" x="6.5" y="-8.3" font-family="Arial" font-size="9.00">... +3 columns</text>
<polygon fill="none" stroke="#17365d" points="0,0 0,-207 209,-207 209,0 0,0"/>
</g>
<!-- hr.Employees -->
<g id="node7" class="node">
<title>hr.Employees</title>
<polygon fill="#fff2cc" stroke="transparent" points="424,-195.5 424,-220.5 523,-220.5 523,-195.5 424,-195.5"/>
<text text-anchor="start" x="429" y="-205.3" font-family="Arial" font-weight="bold" font-size="14.00" fill="#1f1f1f">hr.Employees</text>
<text text-anchor="start" x="435.5" y="-183.3" font-family="Arial" font-size="9.00">Phase 1 reference</text>
<polygon fill="none" stroke="#d9a300" points="422.5,-175 422.5,-222 523.5,-222 523.5,-175 422.5,-175"/>
</g>
<!-- marketing.MarketingExpenses&#45;&gt;hr.Employees -->
<g id="edge7" class="edge">
<title>marketing.MarketingExpenses&#45;&gt;hr.Employees</title>
<path fill="none" stroke="#667788" d="M209.05,-130.34C276.04,-147.71 360.68,-169.64 415.55,-183.87"/>
<polygon fill="#667788" stroke="#667788" points="415.03,-186.26 422.42,-185.65 416.26,-181.52 415.03,-186.26"/>
<text text-anchor="middle" x="286" y="-163.1" font-family="Arial" font-size="8.00">ApprovedByEmployeeID</text>
</g>
<!-- marketing.MarketingCampaigns -->
<g id="node8" class="node">
<title>marketing.MarketingCampaigns</title>
<polygon fill="#fff2cc" stroke="transparent" points="364,-415.5 364,-440.5 582,-440.5 582,-415.5 364,-415.5"/>
<text text-anchor="start" x="369" y="-425.3" font-family="Arial" font-weight="bold" font-size="14.00" fill="#1f1f1f">marketing.MarketingCampaigns</text>
<text text-anchor="start" x="435" y="-403.3" font-family="Arial" font-size="9.00">Phase 1 reference</text>
<polygon fill="none" stroke="#d9a300" points="363,-395 363,-442 583,-442 583,-395 363,-395"/>
</g>
<!-- marketing.MarketingExpenses&#45;&gt;marketing.MarketingCampaigns -->
<g id="edge5" class="edge">
<title>marketing.MarketingExpenses&#45;&gt;marketing.MarketingCampaigns</title>
<path fill="none" stroke="#667788" d="M197.92,-207.09C204.73,-214.71 209,-219.5 209,-219.5 209,-219.5 242,-345.5 242,-345.5 242,-345.5 324.67,-371.74 390.88,-392.75"/>
<polygon fill="#667788" stroke="#667788" points="390.23,-395.12 397.64,-394.9 391.71,-390.45 390.23,-395.12"/>
<text text-anchor="middle" x="286" y="-375.1" font-family="Arial" font-size="8.00">CampaignID</text>
</g>
<!-- procurement.Suppliers -->
<g id="node9" class="node">
<title>procurement.Suppliers</title>
<polygon fill="#fff2cc" stroke="transparent" points="394,-100.5 394,-125.5 553,-125.5 553,-100.5 394,-100.5"/>
<text text-anchor="start" x="399" y="-110.3" font-family="Arial" font-weight="bold" font-size="14.00" fill="#1f1f1f">procurement.Suppliers</text>
<text text-anchor="start" x="435.5" y="-88.3" font-family="Arial" font-size="9.00">Phase 1 reference</text>
<polygon fill="none" stroke="#d9a300" points="392.5,-80 392.5,-127 553.5,-127 553.5,-80 392.5,-80"/>
</g>
<!-- marketing.MarketingExpenses&#45;&gt;procurement.Suppliers -->
<g id="edge6" class="edge">
<title>marketing.MarketingExpenses&#45;&gt;procurement.Suppliers</title>
<path fill="none" stroke="#667788" d="M209.05,-103.5C264.66,-103.5 332.43,-103.5 385.24,-103.5"/>
<polygon fill="#667788" stroke="#667788" points="385.26,-105.95 392.26,-103.5 385.26,-101.05 385.26,-105.95"/>
<text text-anchor="middle" x="286" y="-106.1" font-family="Arial" font-size="8.00">SupplierID</text>
</g>
<!-- marketing.MarketingLeads -->
<g id="node3" class="node">
<title>marketing.MarketingLeads</title>
<polygon fill="#17365d" stroke="transparent" points="13.5,-644.5 13.5,-669.5 196.5,-669.5 196.5,-644.5 13.5,-644.5"/>
<text text-anchor="start" x="18.5" y="-654.3" font-family="Arial" font-weight="bold" font-size="14.00" fill="white">marketing.MarketingLeads</text>
<text text-anchor="start" x="18.5" y="-632.3" font-family="Arial" font-size="9.00">LeadID</text>
<text text-anchor="start" x="18.5" y="-612.3" font-family="Arial" font-size="9.00">LeadNumber</text>
<text text-anchor="start" x="18.5" y="-592.3" font-family="Arial" font-size="9.00">CampaignID</text>
<text text-anchor="start" x="18.5" y="-572.3" font-family="Arial" font-size="9.00">ExistingCustomerID</text>
<text text-anchor="start" x="18.5" y="-552.3" font-family="Arial" font-size="9.00">LeadDate</text>
<text text-anchor="start" x="18.5" y="-532.3" font-family="Arial" font-size="9.00">LeadSource</text>
<text text-anchor="start" x="18.5" y="-512.3" font-family="Arial" font-size="9.00">LeadStatus</text>
<text text-anchor="start" x="18.5" y="-492.3" font-family="Arial" font-size="9.00">LeadScore</text>
<text text-anchor="start" x="18.5" y="-472.3" font-family="Arial" font-size="9.00">... +5 columns</text>
<polygon fill="none" stroke="#17365d" points="12,-464 12,-671 197,-671 197,-464 12,-464"/>
</g>
<!-- marketing.MarketingLeads&#45;&gt;crm.Customers -->
<g id="edge2" class="edge">
<title>marketing.MarketingLeads&#45;&gt;crm.Customers</title>
<path fill="none" stroke="#667788" d="M197.14,-568.72C259.21,-569.55 330,-570.5 330,-570.5 330,-570.5 371.21,-580.37 409.23,-589.47"/>
<polygon fill="#667788" stroke="#667788" points="408.91,-591.91 416.29,-591.16 410.05,-587.15 408.91,-591.91"/>
<text text-anchor="middle" x="286" y="-573.1" font-family="Arial" font-size="8.00">ExistingCustomerID</text>
</g>
<!-- marketing.MarketingLeads&#45;&gt;crm.Customers -->
<g id="edge3" class="edge">
<title>marketing.MarketingLeads&#45;&gt;crm.Customers</title>
<path fill="none" stroke="#667788" d="M197.04,-576.74C263.25,-583.43 350.99,-592.28 409.36,-598.18"/>
<polygon fill="#667788" stroke="#667788" points="409.12,-600.61 416.33,-598.88 409.61,-595.74 409.12,-600.61"/>
<text text-anchor="middle" x="286" y="-591.1" font-family="Arial" font-size="8.00">ConvertedCustomerID</text>
</g>
<!-- marketing.MarketingLeads&#45;&gt;hr.Employees -->
<g id="edge4" class="edge">
<title>marketing.MarketingLeads&#45;&gt;hr.Employees</title>
<path fill="none" stroke="#667788" d="M197.13,-464.81C204.39,-456.66 209,-451.5 209,-451.5 209,-451.5 242,-414.5 242,-414.5 242,-414.5 330,-384.5 330,-384.5 330,-384.5 363,-234.5 363,-234.5 363,-234.5 388.95,-225.93 415.53,-217.15"/>
<polygon fill="#667788" stroke="#667788" points="416.41,-219.44 422.28,-214.92 414.87,-214.79 416.41,-219.44"/>
<text text-anchor="middle" x="286" y="-417.1" font-family="Arial" font-size="8.00">OwnerEmployeeID</text>
</g>
<!-- marketing.MarketingLeads&#45;&gt;marketing.MarketingCampaigns -->
<g id="edge1" class="edge">
<title>marketing.MarketingLeads&#45;&gt;marketing.MarketingCampaigns</title>
<path fill="none" stroke="#667788" d="M197.3,-517.06C222,-503.49 242,-492.5 242,-492.5 242,-492.5 325.71,-465.57 392.13,-444.2"/>
<polygon fill="#667788" stroke="#667788" points="393,-446.49 398.91,-442.02 391.5,-441.83 393,-446.49"/>
<text text-anchor="middle" x="286" y="-495.1" font-family="Arial" font-size="8.00">CampaignID</text>
</g>
<!-- service.CustomerInteractions -->
<g id="node4" class="node">
<title>service.CustomerInteractions</title>
<polygon fill="#17365d" stroke="transparent" points="4.5,-412.5 4.5,-437.5 205.5,-437.5 205.5,-412.5 4.5,-412.5"/>
<text text-anchor="start" x="9.5" y="-422.3" font-family="Arial" font-weight="bold" font-size="14.00" fill="white">service.CustomerInteractions</text>
<text text-anchor="start" x="9.5" y="-400.3" font-family="Arial" font-size="9.00">InteractionID</text>
<text text-anchor="start" x="9.5" y="-380.3" font-family="Arial" font-size="9.00">InteractionNumber</text>
<text text-anchor="start" x="9.5" y="-360.3" font-family="Arial" font-size="9.00">CustomerID</text>
<text text-anchor="start" x="9.5" y="-340.3" font-family="Arial" font-size="9.00">SalesOrderID</text>
<text text-anchor="start" x="9.5" y="-320.3" font-family="Arial" font-size="9.00">ComplaintID</text>
<text text-anchor="start" x="9.5" y="-300.3" font-family="Arial" font-size="9.00">InteractionDate</text>
<text text-anchor="start" x="9.5" y="-280.3" font-family="Arial" font-size="9.00">InteractionChannel</text>
<text text-anchor="start" x="9.5" y="-260.3" font-family="Arial" font-size="9.00">InteractionType</text>
<text text-anchor="start" x="9.5" y="-240.3" font-family="Arial" font-size="9.00">... +6 columns</text>
<polygon fill="none" stroke="#17365d" points="3,-232 3,-439 206,-439 206,-232 3,-232"/>
</g>
<!-- core.Branches -->
<g id="node5" class="node">
<title>core.Branches</title>
<polygon fill="#fff2cc" stroke="transparent" points="421,-267.5 421,-292.5 525,-292.5 525,-267.5 421,-267.5"/>
<text text-anchor="start" x="426" y="-277.3" font-family="Arial" font-weight="bold" font-size="14.00" fill="#1f1f1f">core.Branches</text>
<text text-anchor="start" x="435" y="-255.3" font-family="Arial" font-size="9.00">Phase 1 reference</text>
<polygon fill="none" stroke="#d9a300" points="420,-247 420,-294 526,-294 526,-247 420,-247"/>
</g>
<!-- service.CustomerInteractions&#45;&gt;core.Branches -->
<g id="edge14" class="edge">
<title>service.CustomerInteractions&#45;&gt;core.Branches</title>
<path fill="none" stroke="#667788" d="M206.13,-317.65C272.48,-305.88 357.11,-290.88 412.85,-280.99"/>
<polygon fill="#667788" stroke="#667788" points="413.37,-283.39 419.84,-279.75 412.52,-278.56 413.37,-283.39"/>
<text text-anchor="middle" x="286" y="-313.1" font-family="Arial" font-size="8.00">BranchID</text>
</g>
<!-- service.CustomerInteractions&#45;&gt;crm.Customers -->
<g id="edge10" class="edge">
<title>service.CustomerInteractions&#45;&gt;crm.Customers</title>
<path fill="none" stroke="#667788" d="M197.92,-439.09C204.73,-446.71 209,-451.5 209,-451.5 209,-451.5 242,-501.5 242,-501.5 242,-501.5 344.89,-547.58 413.04,-578.1"/>
<polygon fill="#667788" stroke="#667788" points="412.13,-580.37 419.52,-581 414.13,-575.9 412.13,-580.37"/>
<text text-anchor="middle" x="286" y="-543.1" font-family="Arial" font-size="8.00">CustomerID</text>
</g>
<!-- service.CustomerInteractions&#45;&gt;hr.Employees -->
<g id="edge13" class="edge">
<title>service.CustomerInteractions&#45;&gt;hr.Employees</title>
<path fill="none" stroke="#667788" d="M206.14,-295.69C226.6,-287.59 242,-281.5 242,-281.5 242,-281.5 363,-234.5 363,-234.5 363,-234.5 388.95,-225.93 415.53,-217.15"/>
<polygon fill="#667788" stroke="#667788" points="416.41,-219.44 422.28,-214.92 414.87,-214.79 416.41,-219.44"/>
<text text-anchor="middle" x="286" y="-284.1" font-family="Arial" font-size="8.00">EmployeeID</text>
</g>
<!-- service.CustomerInteractions&#45;&gt;sales.SalesOrders -->
<g id="edge11" class="edge">
<title>service.CustomerInteractions&#45;&gt;sales.SalesOrders</title>
<path fill="none" stroke="#667788" d="M206.14,-400.38C226.6,-413.57 242,-423.5 242,-423.5 242,-423.5 330,-453.5 330,-453.5 330,-453.5 374.44,-473.84 413.6,-491.77"/>
<polygon fill="#667788" stroke="#667788" points="412.95,-494.16 420.33,-494.85 414.99,-489.71 412.95,-494.16"/>
<text text-anchor="middle" x="286" y="-456.1" font-family="Arial" font-size="8.00">SalesOrderID</text>
</g>
<!-- service.CustomerComplaints -->
<g id="node11" class="node">
<title>service.CustomerComplaints</title>
<polygon fill="#fff2cc" stroke="transparent" points="374,-339.5 374,-364.5 573,-364.5 573,-339.5 374,-339.5"/>
<text text-anchor="start" x="379" y="-349.3" font-family="Arial" font-weight="bold" font-size="14.00" fill="#1f1f1f">service.CustomerComplaints</text>
<text text-anchor="start" x="435.5" y="-327.3" font-family="Arial" font-size="9.00">Phase 1 reference</text>
<polygon fill="none" stroke="#d9a300" points="372.5,-319 372.5,-366 573.5,-366 573.5,-319 372.5,-319"/>
</g>
<!-- service.CustomerInteractions&#45;&gt;service.CustomerComplaints -->
<g id="edge12" class="edge">
<title>service.CustomerInteractions&#45;&gt;service.CustomerComplaints</title>
<path fill="none" stroke="#667788" d="M206.26,-335.95C265.94,-336.21 330,-336.5 330,-336.5 330,-336.5 344.96,-337.13 365.18,-337.99"/>
<polygon fill="#667788" stroke="#667788" points="365.12,-340.44 372.22,-338.28 365.33,-335.54 365.12,-340.44"/>
<text text-anchor="middle" x="286" y="-339.1" font-family="Arial" font-size="8.00">ComplaintID</text>
</g>
</g>
</svg>
