<?xml version="1.0" encoding="UTF-8" standalone="no"?>
<!DOCTYPE svg PUBLIC "-//W3C//DTD SVG 1.1//EN"
 "http://www.w3.org/Graphics/SVG/1.1/DTD/svg11.dtd">
<!-- Generated by graphviz version 2.42.4 (0)
 -->
<!-- Title: DomainERD Pages: 1 -->
<svg width="1083pt" height="1519pt"
 viewBox="0.00 0.00 1083.20 1519.20" xmlns="http://www.w3.org/2000/svg" xmlns:xlink="http://www.w3.org/1999/xlink">
<g id="graph0" class="graph" transform="scale(1 1) rotate(0) translate(21.6 1497.6)">
<title>DomainERD</title>
<polygon fill="white" stroke="transparent" points="-21.6,21.6 -21.6,-1497.6 1061.6,-1497.6 1061.6,21.6 -21.6,21.6"/>
<text text-anchor="middle" x="520" y="-1457.6" font-family="Arial" font-size="18.00" fill="#17365d">ABC Retail Phase2 ERD Risk Audit BI</text>
<!-- audit.AuditFindings -->
<g id="node1" class="node">
<title>audit.AuditFindings</title>
<polygon fill="#17365d" stroke="transparent" points="278,-1057.5 278,-1082.5 415,-1082.5 415,-1057.5 278,-1057.5"/>
<text text-anchor="start" x="283" y="-1067.3" font-family="Arial" font-weight="bold" font-size="14.00" fill="white">audit.AuditFindings</text>
<text text-anchor="start" x="283" y="-1045.3" font-family="Arial" font-size="9.00">FindingID</text>
<text text-anchor="start" x="283" y="-1025.3" font-family="Arial" font-size="9.00">FindingNumber</text>
<text text-anchor="start" x="283" y="-1005.3" font-family="Arial" font-size="9.00">AuditID</text>
<text text-anchor="start" x="283" y="-985.3" font-family="Arial" font-size="9.00">DepartmentID</text>
<text text-anchor="start" x="283" y="-965.3" font-family="Arial" font-size="9.00">BranchID</text>
<text text-anchor="start" x="283" y="-945.3" font-family="Arial" font-size="9.00">RiskID</text>
<text text-anchor="start" x="283" y="-925.3" font-family="Arial" font-size="9.00">ControlID</text>
<text text-anchor="start" x="283" y="-905.3" font-family="Arial" font-size="9.00">FindingTitle</text>
<text text-anchor="start" x="283" y="-885.3" font-family="Arial" font-size="9.00">... +11 columns</text>
<polygon fill="none" stroke="#17365d" points="276.5,-877 276.5,-1084 415.5,-1084 415.5,-877 276.5,-877"/>
</g>
<!-- audit.Audits -->
<g id="node2" class="node">
<title>audit.Audits</title>
<polygon fill="#17365d" stroke="transparent" points="615,-1057.5 615,-1082.5 726,-1082.5 726,-1057.5 615,-1057.5"/>
<text text-anchor="start" x="631" y="-1067.3" font-family="Arial" font-weight="bold" font-size="14.00" fill="white">audit.Audits</text>
<text text-anchor="start" x="620" y="-1045.3" font-family="Arial" font-size="9.00">AuditID</text>
<text text-anchor="start" x="620" y="-1025.3" font-family="Arial" font-size="9.00">AuditNumber</text>
<text text-anchor="start" x="620" y="-1005.3" font-family="Arial" font-size="9.00">AuditTitle</text>
<text text-anchor="start" x="620" y="-985.3" font-family="Arial" font-size="9.00">AuditType</text>
<text text-anchor="start" x="620" y="-965.3" font-family="Arial" font-size="9.00">AuditScope</text>
<text text-anchor="start" x="620" y="-945.3" font-family="Arial" font-size="9.00">LeadAuditorEmployeeID</text>
<text text-anchor="start" x="620" y="-925.3" font-family="Arial" font-size="9.00">DepartmentID</text>
<text text-anchor="start" x="620" y="-905.3" font-family="Arial" font-size="9.00">BranchID</text>
<text text-anchor="start" x="620" y="-885.3" font-family="Arial" font-size="9.00">... +8 columns</text>
<polygon fill="none" stroke="#17365d" points="613.5,-877 613.5,-1084 726.5,-1084 726.5,-877 613.5,-877"/>
</g>
<!-- audit.AuditFindings&#45;&gt;audit.Audits -->
<g id="edge9" class="edge">
<title>audit.AuditFindings&#45;&gt;audit.Audits</title>
<path fill="none" stroke="#667788" d="M415.68,-980.5C472.07,-980.5 551.28,-980.5 606.04,-980.5"/>
<polygon fill="#667788" stroke="#667788" points="606.27,-982.95 613.27,-980.5 606.27,-978.05 606.27,-982.95"/>
<text text-anchor="middle" x="504" y="-983.1" font-family="Arial" font-size="8.00">AuditID</text>
</g>
<!-- risk.RiskRegister -->
<g id="node8" class="node">
<title>risk.RiskRegister</title>
<polygon fill="#17365d" stroke="transparent" points="610,-1421.5 610,-1446.5 731,-1446.5 731,-1421.5 610,-1421.5"/>
<text text-anchor="start" x="615" y="-1431.3" font-family="Arial" font-weight="bold" font-size="14.00" fill="white">risk.RiskRegister</text>
<text text-anchor="start" x="615" y="-1409.3" font-family="Arial" font-size="9.00">RiskID</text>
<text text-anchor="start" x="615" y="-1389.3" font-family="Arial" font-size="9.00">RiskNumber</text>
<text text-anchor="start" x="615" y="-1369.3" font-family="Arial" font-size="9.00">RiskTitle</text>
<text text-anchor="start" x="615" y="-1349.3" font-family="Arial" font-size="9.00">RiskCategory</text>
<text text-anchor="start" x="615" y="-1329.3" font-family="Arial" font-size="9.00">DepartmentID</text>
<text text-anchor="start" x="615" y="-1309.3" font-family="Arial" font-size="9.00">BranchID</text>
<text text-anchor="start" x="615" y="-1289.3" font-family="Arial" font-size="9.00">AssetID</text>
<text text-anchor="start" x="615" y="-1269.3" font-family="Arial" font-size="9.00">SystemID</text>
<text text-anchor="start" x="615" y="-1249.3" font-family="Arial" font-size="9.00">... +16 columns</text>
<polygon fill="none" stroke="#17365d" points="608.5,-1241 608.5,-1448 731.5,-1448 731.5,-1241 608.5,-1241"/>
</g>
<!-- audit.AuditFindings&#45;&gt;risk.RiskRegister -->
<g id="edge12" class="edge">
<title>audit.AuditFindings&#45;&gt;risk.RiskRegister</title>
<path fill="none" stroke="#667788" d="M394.34,-1084.05C424.9,-1150.91 459,-1225.5 459,-1225.5 459,-1225.5 540.54,-1271.71 602,-1306.53"/>
<polygon fill="#667788" stroke="#667788" points="600.96,-1308.76 608.26,-1310.08 603.38,-1304.5 600.96,-1308.76"/>
<text text-anchor="middle" x="504" y="-1276.1" font-family="Arial" font-size="8.00">RiskID</text>
</g>
<!-- core.Branches -->
<g id="node10" class="node">
<title>core.Branches</title>
<polygon fill="#fff2cc" stroke="transparent" points="924,-1203.5 924,-1228.5 1028,-1228.5 1028,-1203.5 924,-1203.5"/>
<text text-anchor="start" x="929" y="-1213.3" font-family="Arial" font-weight="bold" font-size="14.00" fill="#1f1f1f">core.Branches</text>
<text text-anchor="start" x="938" y="-1191.3" font-family="Arial" font-size="9.00">Phase 1 reference</text>
<polygon fill="none" stroke="#d9a300" points="923,-1183 923,-1230 1029,-1230 1029,-1183 923,-1183"/>
</g>
<!-- audit.AuditFindings&#45;&gt;core.Branches -->
<g id="edge11" class="edge">
<title>audit.AuditFindings&#45;&gt;core.Branches</title>
<path fill="none" stroke="#667788" d="M415.7,-1051.04C438.88,-1074.84 459,-1095.5 459,-1095.5 459,-1095.5 582,-1168.5 582,-1168.5 582,-1168.5 805.97,-1190.16 915.75,-1200.77"/>
<polygon fill="#667788" stroke="#667788" points="915.61,-1203.22 922.81,-1201.45 916.08,-1198.34 915.61,-1203.22"/>
<text text-anchor="middle" x="670" y="-1188.1" font-family="Arial" font-size="8.00">BranchID</text>
</g>
<!-- core.Departments -->
<g id="node11" class="node">
<title>core.Departments</title>
<polygon fill="#fff2cc" stroke="transparent" points="913,-922.5 913,-947.5 1039,-947.5 1039,-922.5 913,-922.5"/>
<text text-anchor="start" x="918" y="-932.3" font-family="Arial" font-weight="bold" font-size="14.00" fill="#1f1f1f">core.Departments</text>
<text text-anchor="start" x="938" y="-910.3" font-family="Arial" font-size="9.00">Phase 1 reference</text>
<polygon fill="none" stroke="#d9a300" points="912,-902 912,-949 1040,-949 1040,-902 912,-902"/>
</g>
<!-- audit.AuditFindings&#45;&gt;core.Departments -->
<g id="edge10" class="edge">
<title>audit.AuditFindings&#45;&gt;core.Departments</title>
<path fill="none" stroke="#667788" d="M415.6,-944.01C484.97,-907.11 582,-855.5 582,-855.5 582,-855.5 758,-855.5 758,-855.5 758,-855.5 791,-875.5 791,-875.5 791,-875.5 852.98,-892.34 905,-906.48"/>
<polygon fill="#667788" stroke="#667788" points="904.54,-908.89 911.94,-908.36 905.82,-904.16 904.54,-908.89"/>
<text text-anchor="middle" x="670" y="-858.1" font-family="Arial" font-size="8.00">DepartmentID</text>
</g>
<!-- hr.Employees -->
<g id="node12" class="node">
<title>hr.Employees</title>
<polygon fill="#fff2cc" stroke="transparent" points="927,-595.5 927,-620.5 1026,-620.5 1026,-595.5 927,-595.5"/>
<text text-anchor="start" x="932" y="-605.3" font-family="Arial" font-weight="bold" font-size="14.00" fill="#1f1f1f">hr.Employees</text>
<text text-anchor="start" x="938.5" y="-583.3" font-family="Arial" font-size="9.00">Phase 1 reference</text>
<polygon fill="none" stroke="#d9a300" points="925.5,-575 925.5,-622 1026.5,-622 1026.5,-575 925.5,-575"/>
</g>
<!-- audit.AuditFindings&#45;&gt;hr.Employees -->
<g id="edge14" class="edge">
<title>audit.AuditFindings&#45;&gt;hr.Employees</title>
<path fill="none" stroke="#667788" d="M415.7,-911.8C438.88,-888.62 459,-868.5 459,-868.5 459,-868.5 879,-766.5 879,-766.5 879,-766.5 930.28,-676.76 957.88,-628.46"/>
<polygon fill="#667788" stroke="#667788" points="960.1,-629.51 961.45,-622.21 955.85,-627.08 960.1,-629.51"/>
<text text-anchor="middle" x="670" y="-840.1" font-family="Arial" font-size="8.00">ResponsibleEmployeeID</text>
</g>
<!-- security.SecurityControls -->
<g id="node15" class="node">
<title>security.SecurityControls</title>
<polygon fill="#fff2cc" stroke="transparent" points="583,-1129.5 583,-1154.5 757,-1154.5 757,-1129.5 583,-1129.5"/>
<text text-anchor="start" x="588" y="-1139.3" font-family="Arial" font-weight="bold" font-size="14.00" fill="#1f1f1f">security.SecurityControls</text>
<text text-anchor="start" x="632" y="-1117.3" font-family="Arial" font-size="9.00">Phase 2 reference</text>
<polygon fill="none" stroke="#d9a300" points="582,-1109 582,-1156 758,-1156 758,-1109 582,-1109"/>
</g>
<!-- audit.AuditFindings&#45;&gt;security.SecurityControls -->
<g id="edge13" class="edge">
<title>audit.AuditFindings&#45;&gt;security.SecurityControls</title>
<path fill="none" stroke="#667788" d="M415.6,-1014.36C484.97,-1048.6 582,-1096.5 582,-1096.5 582,-1096.5 592,-1100.64 605.22,-1106.11"/>
<polygon fill="#667788" stroke="#667788" points="604.54,-1108.48 611.94,-1108.89 606.41,-1103.95 604.54,-1108.48"/>
<text text-anchor="middle" x="504" y="-1083.1" font-family="Arial" font-size="8.00">ControlID</text>
</g>
<!-- audit.Audits&#45;&gt;core.Branches -->
<g id="edge8" class="edge">
<title>audit.Audits&#45;&gt;core.Branches</title>
<path fill="none" stroke="#667788" d="M726.76,-1021.95C787.99,-1067.47 884.62,-1139.31 937.45,-1178.58"/>
<polygon fill="#667788" stroke="#667788" points="936.28,-1180.77 943.36,-1182.98 939.2,-1176.83 936.28,-1180.77"/>
<text text-anchor="middle" x="835" y="-1136.1" font-family="Arial" font-size="8.00">BranchID</text>
</g>
<!-- audit.Audits&#45;&gt;core.Departments -->
<g id="edge7" class="edge">
<title>audit.Audits&#45;&gt;core.Departments</title>
<path fill="none" stroke="#667788" d="M726.76,-970.41C776.87,-961.35 850.7,-947.99 904.82,-938.2"/>
<polygon fill="#667788" stroke="#667788" points="905.53,-940.56 911.99,-936.9 904.66,-935.74 905.53,-940.56"/>
<text text-anchor="middle" x="835" y="-961.1" font-family="Arial" font-size="8.00">DepartmentID</text>
</g>
<!-- audit.Audits&#45;&gt;hr.Employees -->
<g id="edge6" class="edge">
<title>audit.Audits&#45;&gt;hr.Employees</title>
<path fill="none" stroke="#667788" d="M726.78,-909.37C758.12,-869.42 791,-827.5 791,-827.5 791,-827.5 879,-797.5 879,-797.5 879,-797.5 933.65,-684.22 960.48,-628.6"/>
<polygon fill="#667788" stroke="#667788" points="962.78,-629.48 963.61,-622.11 958.36,-627.35 962.78,-629.48"/>
<text text-anchor="middle" x="835" y="-830.1" font-family="Arial" font-size="8.00">LeadAuditorEmployeeID</text>
</g>
<!-- audit.CorrectiveActions -->
<g id="node3" class="node">
<title>audit.CorrectiveActions</title>
<polygon fill="#17365d" stroke="transparent" points="1.5,-797.5 1.5,-822.5 164.5,-822.5 164.5,-797.5 1.5,-797.5"/>
<text text-anchor="start" x="6.5" y="-807.3" font-family="Arial" font-weight="bold" font-size="14.00" fill="white">audit.CorrectiveActions</text>
<text text-anchor="start" x="6.5" y="-785.3" font-family="Arial" font-size="9.00">CorrectiveActionID</text>
<text text-anchor="start" x="6.5" y="-765.3" font-family="Arial" font-size="9.00">ActionNumber</text>
<text text-anchor="start" x="6.5" y="-745.3" font-family="Arial" font-size="9.00">FindingID</text>
<text text-anchor="start" x="6.5" y="-725.3" font-family="Arial" font-size="9.00">ActionDescription</text>
<text text-anchor="start" x="6.5" y="-705.3" font-family="Arial" font-size="9.00">ActionOwnerEmployeeID</text>
<text text-anchor="start" x="6.5" y="-685.3" font-family="Arial" font-size="9.00">PlannedStartDate</text>
<text text-anchor="start" x="6.5" y="-665.3" font-family="Arial" font-size="9.00">DueDate</text>
<text text-anchor="start" x="6.5" y="-645.3" font-family="Arial" font-size="9.00">CompletionDate</text>
<text text-anchor="start" x="6.5" y="-625.3" font-family="Arial" font-size="9.00">... +8 columns</text>
<polygon fill="none" stroke="#17365d" points="0,-617 0,-824 165,-824 165,-617 0,-617"/>
</g>
<!-- audit.CorrectiveActions&#45;&gt;audit.AuditFindings -->
<g id="edge15" class="edge">
<title>audit.CorrectiveActions&#45;&gt;audit.AuditFindings</title>
<path fill="none" stroke="#667788" d="M165.16,-801.7C199.02,-835.36 238.01,-874.12 271.01,-906.94"/>
<polygon fill="#667788" stroke="#667788" points="269.57,-908.95 276.26,-912.15 273.02,-905.48 269.57,-908.95"/>
<text text-anchor="middle" x="215.5" y="-869.1" font-family="Arial" font-size="8.00">FindingID</text>
</g>
<!-- audit.CorrectiveActions&#45;&gt;hr.Employees -->
<g id="edge16" class="edge">
<title>audit.CorrectiveActions&#45;&gt;hr.Employees</title>
<path fill="none" stroke="#667788" d="M165.26,-717.21C368.26,-709.05 879,-688.5 879,-688.5 879,-688.5 916.52,-653.33 944.65,-626.96"/>
<polygon fill="#667788" stroke="#667788" points="946.35,-628.72 949.78,-622.15 942.99,-625.15 946.35,-628.72"/>
<text text-anchor="middle" x="504" y="-708.1" font-family="Arial" font-size="8.00">ActionOwnerEmployeeID</text>
</g>
<!-- audit.CorrectiveActions&#45;&gt;hr.Employees -->
<g id="edge17" class="edge">
<title>audit.CorrectiveActions&#45;&gt;hr.Employees</title>
<path fill="none" stroke="#667788" d="M165.2,-711.17C344.77,-690.67 758,-643.5 758,-643.5 758,-643.5 854.3,-623.53 918.59,-610.2"/>
<polygon fill="#667788" stroke="#667788" points="919.13,-612.59 925.49,-608.77 918.14,-607.79 919.13,-612.59"/>
<text text-anchor="middle" x="504" y="-681.1" font-family="Arial" font-size="8.00">VerifiedByEmployeeID</text>
</g>
<!-- bi.KPIDefinitions -->
<g id="node4" class="node">
<title>bi.KPIDefinitions</title>
<polygon fill="#17365d" stroke="transparent" points="611,-604.5 611,-629.5 730,-629.5 730,-604.5 611,-604.5"/>
<text text-anchor="start" x="616" y="-614.3" font-family="Arial" font-weight="bold" font-size="14.00" fill="white">bi.KPIDefinitions</text>
<text text-anchor="start" x="616" y="-592.3" font-family="Arial" font-size="9.00">KPIDefinitionID</text>
<text text-anchor="start" x="616" y="-572.3" font-family="Arial" font-size="9.00">KPICode</text>
<text text-anchor="start" x="616" y="-552.3" font-family="Arial" font-size="9.00">KPIName</text>
<text text-anchor="start" x="616" y="-532.3" font-family="Arial" font-size="9.00">DepartmentID</text>
<text text-anchor="start" x="616" y="-512.3" font-family="Arial" font-size="9.00">BusinessPurpose</text>
<text text-anchor="start" x="616" y="-492.3" font-family="Arial" font-size="9.00">KPIDefinition</text>
<text text-anchor="start" x="616" y="-472.3" font-family="Arial" font-size="9.00">CalculationMethod</text>
<text text-anchor="start" x="616" y="-452.3" font-family="Arial" font-size="9.00">PerformanceDirection</text>
<text text-anchor="start" x="616" y="-432.3" font-family="Arial" font-size="9.00">... +11 columns</text>
<polygon fill="none" stroke="#17365d" points="609.5,-424 609.5,-631 730.5,-631 730.5,-424 609.5,-424"/>
</g>
<!-- bi.KPIDefinitions&#45;&gt;core.Departments -->
<g id="edge18" class="edge">
<title>bi.KPIDefinitions&#45;&gt;core.Departments</title>
<path fill="none" stroke="#667788" d="M730.6,-600.57C792.07,-675.92 879,-782.5 879,-782.5 879,-782.5 927.04,-854.06 955.15,-895.94"/>
<polygon fill="#667788" stroke="#667788" points="953.21,-897.44 959.15,-901.89 957.28,-894.71 953.21,-897.44"/>
<text text-anchor="middle" x="835" y="-785.1" font-family="Arial" font-size="8.00">DepartmentID</text>
</g>
<!-- bi.KPIDefinitions&#45;&gt;hr.Employees -->
<g id="edge19" class="edge">
<title>bi.KPIDefinitions&#45;&gt;hr.Employees</title>
<path fill="none" stroke="#667788" d="M730.7,-541.44C785.14,-554.16 865.02,-572.81 918.45,-585.29"/>
<polygon fill="#667788" stroke="#667788" points="918.11,-587.73 925.48,-586.94 919.22,-582.96 918.11,-587.73"/>
<text text-anchor="middle" x="835" y="-579.1" font-family="Arial" font-size="8.00">DataOwnerEmployeeID</text>
</g>
<!-- bi.KPIPublicationItems -->
<g id="node5" class="node">
<title>bi.KPIPublicationItems</title>
<polygon fill="#17365d" stroke="transparent" points="267,-334.5 267,-359.5 425,-359.5 425,-334.5 267,-334.5"/>
<text text-anchor="start" x="272" y="-344.3" font-family="Arial" font-weight="bold" font-size="14.00" fill="white">bi.KPIPublicationItems</text>
<text text-anchor="start" x="272" y="-322.3" font-family="Arial" font-size="9.00">KPIPublicationItemID</text>
<text text-anchor="start" x="272" y="-302.3" font-family="Arial" font-size="9.00">KPIPublicationID</text>
<text text-anchor="start" x="272" y="-282.3" font-family="Arial" font-size="9.00">KPIDefinitionID</text>
<text text-anchor="start" x="272" y="-262.3" font-family="Arial" font-size="9.00">KPIResultID</text>
<text text-anchor="start" x="272" y="-242.3" font-family="Arial" font-size="9.00">DisplayOrder</text>
<text text-anchor="start" x="272" y="-222.3" font-family="Arial" font-size="9.00">ManagementCommentary</text>
<text text-anchor="start" x="272" y="-202.3" font-family="Arial" font-size="9.00">ActionRequired</text>
<text text-anchor="start" x="272" y="-182.3" font-family="Arial" font-size="9.00">ResponsibleEmployeeID</text>
<text text-anchor="start" x="272" y="-162.3" font-family="Arial" font-size="9.00">... +1 columns</text>
<polygon fill="none" stroke="#17365d" points="266,-154 266,-361 426,-361 426,-154 266,-154"/>
</g>
<!-- bi.KPIPublicationItems&#45;&gt;bi.KPIDefinitions -->
<g id="edge26" class="edge">
<title>bi.KPIPublicationItems&#45;&gt;bi.KPIDefinitions</title>
<path fill="none" stroke="#667788" d="M426.18,-323.9C480.8,-369.69 552.53,-429.84 603.84,-472.86"/>
<polygon fill="#667788" stroke="#667788" points="602.43,-474.88 609.37,-477.5 605.58,-471.12 602.43,-474.88"/>
<text text-anchor="middle" x="504" y="-428.1" font-family="Arial" font-size="8.00">KPIDefinitionID</text>
</g>
<!-- bi.KPIPublications -->
<g id="node6" class="node">
<title>bi.KPIPublications</title>
<polygon fill="#17365d" stroke="transparent" points="606,-180.5 606,-205.5 735,-205.5 735,-180.5 606,-180.5"/>
<text text-anchor="start" x="611" y="-190.3" font-family="Arial" font-weight="bold" font-size="14.00" fill="white">bi.KPIPublications</text>
<text text-anchor="start" x="611" y="-168.3" font-family="Arial" font-size="9.00">KPIPublicationID</text>
<text text-anchor="start" x="611" y="-148.3" font-family="Arial" font-size="9.00">PublicationNumber</text>
<text text-anchor="start" x="611" y="-128.3" font-family="Arial" font-size="9.00">ReportingPeriodStart</text>
<text text-anchor="start" x="611" y="-108.3" font-family="Arial" font-size="9.00">ReportingPeriodEnd</text>
<text text-anchor="start" x="611" y="-88.3" font-family="Arial" font-size="9.00">PublicationType</text>
<text text-anchor="start" x="611" y="-68.3" font-family="Arial" font-size="9.00">PublishedAt</text>
<text text-anchor="start" x="611" y="-48.3" font-family="Arial" font-size="9.00">PublishedByEmployeeID</text>
<text text-anchor="start" x="611" y="-28.3" font-family="Arial" font-size="9.00">ApprovalStatus</text>
<text text-anchor="start" x="611" y="-8.3" font-family="Arial" font-size="9.00">... +6 columns</text>
<polygon fill="none" stroke="#17365d" points="604.5,0 604.5,-207 735.5,-207 735.5,0 604.5,0"/>
</g>
<!-- bi.KPIPublicationItems&#45;&gt;bi.KPIPublications -->
<g id="edge25" class="edge">
<title>bi.KPIPublicationItems&#45;&gt;bi.KPIPublications</title>
<path fill="none" stroke="#667788" d="M426.18,-219.63C478.77,-194.48 547.23,-161.74 598.04,-137.44"/>
<polygon fill="#667788" stroke="#667788" points="599.2,-139.6 604.46,-134.37 597.09,-135.18 599.2,-139.6"/>
<text text-anchor="middle" x="504" y="-206.1" font-family="Arial" font-size="8.00">KPIPublicationID</text>
</g>
<!-- bi.KPIResults -->
<g id="node9" class="node">
<title>bi.KPIResults</title>
<polygon fill="#fff2cc" stroke="transparent" points="621,-312.5 621,-337.5 719,-337.5 719,-312.5 621,-312.5"/>
<text text-anchor="start" x="626" y="-322.3" font-family="Arial" font-weight="bold" font-size="14.00" fill="#1f1f1f">bi.KPIResults</text>
<text text-anchor="start" x="632" y="-300.3" font-family="Arial" font-size="9.00">Phase 1 reference</text>
<polygon fill="none" stroke="#d9a300" points="620,-292 620,-339 720,-339 720,-292 620,-292"/>
</g>
<!-- bi.KPIPublicationItems&#45;&gt;bi.KPIResults -->
<g id="edge27" class="edge">
<title>bi.KPIPublicationItems&#45;&gt;bi.KPIResults</title>
<path fill="none" stroke="#667788" d="M426.18,-271.76C483.98,-282.17 560.95,-296.04 612.59,-305.34"/>
<polygon fill="#667788" stroke="#667788" points="612.38,-307.79 619.71,-306.62 613.25,-302.97 612.38,-307.79"/>
<text text-anchor="middle" x="504" y="-296.1" font-family="Arial" font-size="8.00">KPIResultID</text>
</g>
<!-- bi.KPIPublicationItems&#45;&gt;hr.Employees -->
<g id="edge28" class="edge">
<title>bi.KPIPublicationItems&#45;&gt;hr.Employees</title>
<path fill="none" stroke="#667788" d="M426.24,-260.01C545.68,-263.78 758,-270.5 758,-270.5 758,-270.5 879,-428.5 879,-428.5 879,-428.5 930.54,-519.77 958.09,-568.56"/>
<polygon fill="#667788" stroke="#667788" points="956.08,-569.97 961.65,-574.86 960.34,-567.56 956.08,-569.97"/>
<text text-anchor="middle" x="670" y="-273.1" font-family="Arial" font-size="8.00">ResponsibleEmployeeID</text>
</g>
<!-- bi.KPIPublications&#45;&gt;hr.Employees -->
<g id="edge23" class="edge">
<title>bi.KPIPublications&#45;&gt;hr.Employees</title>
<path fill="none" stroke="#667788" d="M735.67,-123.71C796.73,-142.79 879,-168.5 879,-168.5 879,-168.5 946.17,-469.38 968.14,-567.77"/>
<polygon fill="#667788" stroke="#667788" points="965.79,-568.47 969.7,-574.77 970.57,-567.4 965.79,-568.47"/>
<text text-anchor="middle" x="835" y="-171.1" font-family="Arial" font-size="8.00">PublishedByEmployeeID</text>
</g>
<!-- bi.KPIPublications&#45;&gt;hr.Employees -->
<g id="edge24" class="edge">
<title>bi.KPIPublications&#45;&gt;hr.Employees</title>
<path fill="none" stroke="#667788" d="M735.57,-144.39C763.97,-162.38 791,-179.5 791,-179.5 791,-179.5 879,-229.5 879,-229.5 879,-229.5 944.09,-479.68 967.08,-568.04"/>
<polygon fill="#667788" stroke="#667788" points="964.72,-568.7 968.85,-574.86 969.46,-567.46 964.72,-568.7"/>
<text text-anchor="middle" x="835" y="-232.1" font-family="Arial" font-size="8.00">ApprovedByEmployeeID</text>
</g>
<!-- bi.KPIValidationLog -->
<g id="node7" class="node">
<title>bi.KPIValidationLog</title>
<polygon fill="#17365d" stroke="transparent" points="278,-566.5 278,-591.5 415,-591.5 415,-566.5 278,-566.5"/>
<text text-anchor="start" x="283" y="-576.3" font-family="Arial" font-weight="bold" font-size="14.00" fill="white">bi.KPIValidationLog</text>
<text text-anchor="start" x="283" y="-554.3" font-family="Arial" font-size="9.00">KPIValidationID</text>
<text text-anchor="start" x="283" y="-534.3" font-family="Arial" font-size="9.00">KPIDefinitionID</text>
<text text-anchor="start" x="283" y="-514.3" font-family="Arial" font-size="9.00">KPIResultID</text>
<text text-anchor="start" x="283" y="-494.3" font-family="Arial" font-size="9.00">ValidationDate</text>
<text text-anchor="start" x="283" y="-474.3" font-family="Arial" font-size="9.00">PeriodStart</text>
<text text-anchor="start" x="283" y="-454.3" font-family="Arial" font-size="9.00">PeriodEnd</text>
<text text-anchor="start" x="283" y="-434.3" font-family="Arial" font-size="9.00">ValidatorEmployeeID</text>
<text text-anchor="start" x="283" y="-414.3" font-family="Arial" font-size="9.00">SourceRecordCount</text>
<text text-anchor="start" x="283" y="-394.3" font-family="Arial" font-size="9.00">... +9 columns</text>
<polygon fill="none" stroke="#17365d" points="276.5,-386 276.5,-593 415.5,-593 415.5,-386 276.5,-386"/>
</g>
<!-- bi.KPIValidationLog&#45;&gt;bi.KPIDefinitions -->
<g id="edge20" class="edge">
<title>bi.KPIValidationLog&#45;&gt;bi.KPIDefinitions</title>
<path fill="none" stroke="#667788" d="M415.68,-497.61C470.74,-504.1 547.57,-513.17 602.14,-519.61"/>
<polygon fill="#667788" stroke="#667788" points="602.11,-522.07 609.35,-520.46 602.69,-517.21 602.11,-522.07"/>
<text text-anchor="middle" x="504" y="-516.1" font-family="Arial" font-size="8.00">KPIDefinitionID</text>
</g>
<!-- bi.KPIValidationLog&#45;&gt;bi.KPIResults -->
<g id="edge21" class="edge">
<title>bi.KPIValidationLog&#45;&gt;bi.KPIResults</title>
<path fill="none" stroke="#667788" d="M415.7,-398.11C438.88,-367.26 459,-340.5 459,-340.5 459,-340.5 550.51,-329.61 612.71,-322.2"/>
<polygon fill="#667788" stroke="#667788" points="613.1,-324.62 619.76,-321.36 612.52,-319.76 613.1,-324.62"/>
<text text-anchor="middle" x="504" y="-343.1" font-family="Arial" font-size="8.00">KPIResultID</text>
</g>
<!-- bi.KPIValidationLog&#45;&gt;hr.Employees -->
<g id="edge22" class="edge">
<title>bi.KPIValidationLog&#45;&gt;hr.Employees</title>
<path fill="none" stroke="#667788" d="M415.6,-464.1C484.97,-438.42 582,-402.5 582,-402.5 582,-402.5 758,-402.5 758,-402.5 758,-402.5 883.42,-515.79 943.56,-570.11"/>
<polygon fill="#667788" stroke="#667788" points="941.99,-571.98 948.82,-574.86 945.27,-568.35 941.99,-571.98"/>
<text text-anchor="middle" x="670" y="-405.1" font-family="Arial" font-size="8.00">ValidatorEmployeeID</text>
</g>
<!-- risk.RiskRegister&#45;&gt;core.Branches -->
<g id="edge2" class="edge">
<title>risk.RiskRegister&#45;&gt;core.Branches</title>
<path fill="none" stroke="#667788" d="M731.79,-1316.91C785.46,-1292.54 863.21,-1257.25 916.26,-1233.17"/>
<polygon fill="#667788" stroke="#667788" points="917.56,-1235.26 922.92,-1230.14 915.54,-1230.8 917.56,-1235.26"/>
<text text-anchor="middle" x="835" y="-1290.1" font-family="Arial" font-size="8.00">BranchID</text>
</g>
<!-- risk.RiskRegister&#45;&gt;core.Departments -->
<g id="edge1" class="edge">
<title>risk.RiskRegister&#45;&gt;core.Departments</title>
<path fill="none" stroke="#667788" d="M731.66,-1258.74C746.39,-1237.91 758,-1221.5 758,-1221.5 758,-1221.5 791,-1058.5 791,-1058.5 791,-1058.5 882.4,-992.44 936.36,-953.43"/>
<polygon fill="#667788" stroke="#667788" points="937.87,-955.36 942.1,-949.28 935,-951.39 937.87,-955.36"/>
<text text-anchor="middle" x="835" y="-1061.1" font-family="Arial" font-size="8.00">DepartmentID</text>
</g>
<!-- risk.RiskRegister&#45;&gt;hr.Employees -->
<g id="edge5" class="edge">
<title>risk.RiskRegister&#45;&gt;hr.Employees</title>
<path fill="none" stroke="#667788" d="M731.66,-1258.74C746.39,-1237.91 758,-1221.5 758,-1221.5 758,-1221.5 791,-928.5 791,-928.5 791,-928.5 879,-836.5 879,-836.5 879,-836.5 936.87,-693.04 962.75,-628.88"/>
<polygon fill="#667788" stroke="#667788" points="965.1,-629.6 965.44,-622.19 960.55,-627.77 965.1,-629.6"/>
<text text-anchor="middle" x="835" y="-931.1" font-family="Arial" font-size="8.00">RiskOwnerEmployeeID</text>
</g>
<!-- it.ITAssets -->
<g id="node13" class="node">
<title>it.ITAssets</title>
<polygon fill="#fff2cc" stroke="transparent" points="933,-1399.5 933,-1424.5 1019,-1424.5 1019,-1399.5 933,-1399.5"/>
<text text-anchor="start" x="942" y="-1409.3" font-family="Arial" font-weight="bold" font-size="14.00" fill="#1f1f1f">it.ITAssets</text>
<text text-anchor="start" x="938" y="-1387.3" font-family="Arial" font-size="9.00">Phase 2 reference</text>
<polygon fill="none" stroke="#d9a300" points="932,-1379 932,-1426 1020,-1426 1020,-1379 932,-1379"/>
</g>
<!-- risk.RiskRegister&#45;&gt;it.ITAssets -->
<g id="edge3" class="edge">
<title>risk.RiskRegister&#45;&gt;it.ITAssets</title>
<path fill="none" stroke="#667788" d="M731.79,-1356.1C788.5,-1366.92 872.1,-1382.87 925.03,-1392.97"/>
<polygon fill="#667788" stroke="#667788" points="924.63,-1395.38 931.97,-1394.29 925.55,-1390.57 924.63,-1395.38"/>
<text text-anchor="middle" x="835" y="-1386.1" font-family="Arial" font-size="8.00">AssetID</text>
</g>
<!-- it.Systems -->
<g id="node14" class="node">
<title>it.Systems</title>
<polygon fill="#fff2cc" stroke="transparent" points="933,-1327.5 933,-1352.5 1019,-1352.5 1019,-1327.5 933,-1327.5"/>
<text text-anchor="start" x="941.5" y="-1337.3" font-family="Arial" font-weight="bold" font-size="14.00" fill="#1f1f1f">it.Systems</text>
<text text-anchor="start" x="938" y="-1315.3" font-family="Arial" font-size="9.00">Phase 2 reference</text>
<polygon fill="none" stroke="#d9a300" points="932,-1307 932,-1354 1020,-1354 1020,-1307 932,-1307"/>
</g>
<!-- risk.RiskRegister&#45;&gt;it.Systems -->
<g id="edge4" class="edge">
<title>risk.RiskRegister&#45;&gt;it.Systems</title>
<path fill="none" stroke="#667788" d="M731.79,-1341.7C788.39,-1339.09 871.75,-1335.25 924.7,-1332.82"/>
<polygon fill="#667788" stroke="#667788" points="925.09,-1335.25 931.97,-1332.48 924.86,-1330.36 925.09,-1335.25"/>
<text text-anchor="middle" x="835" y="-1341.1" font-family="Arial" font-size="8.00">SystemID</text>
</g>
</g>
</svg>
