<?xml version="1.0" encoding="UTF-8" standalone="no"?>
<!DOCTYPE svg PUBLIC "-//W3C//DTD SVG 1.1//EN"
 "http://www.w3.org/Graphics/SVG/1.1/DTD/svg11.dtd">
<!-- Generated by graphviz version 2.42.4 (0)
 -->
<!-- Title: DomainERD Pages: 1 -->
<svg width="1331pt" height="1314pt"
 viewBox="0.00 0.00 1331.20 1313.70" xmlns="http://www.w3.org/2000/svg" xmlns:xlink="http://www.w3.org/1999/xlink">
<g id="graph0" class="graph" transform="scale(1 1) rotate(0) translate(21.6 1292.1)">
<title>DomainERD</title>
<polygon fill="white" stroke="transparent" points="-21.6,21.6 -21.6,-1292.1 1309.6,-1292.1 1309.6,21.6 -21.6,21.6"/>
<text text-anchor="middle" x="644" y="-1252.1" font-family="Arial" font-size="18.00" fill="#17365d">ABC Retail Phase2 ERD Technology Security</text>
<!-- it.ITAssets -->
<g id="node1" class="node">
<title>it.ITAssets</title>
<polygon fill="#17365d" stroke="transparent" points="555.5,-826.5 555.5,-851.5 654.5,-851.5 654.5,-826.5 555.5,-826.5"/>
<text text-anchor="start" x="571" y="-836.3" font-family="Arial" font-weight="bold" font-size="14.00" fill="white">it.ITAssets</text>
<text text-anchor="start" x="560.5" y="-814.3" font-family="Arial" font-size="9.00">AssetID</text>
<text text-anchor="start" x="560.5" y="-794.3" font-family="Arial" font-size="9.00">AssetTag</text>
<text text-anchor="start" x="560.5" y="-774.3" font-family="Arial" font-size="9.00">AssetName</text>
<text text-anchor="start" x="560.5" y="-754.3" font-family="Arial" font-size="9.00">AssetType</text>
<text text-anchor="start" x="560.5" y="-734.3" font-family="Arial" font-size="9.00">SerialNumber</text>
<text text-anchor="start" x="560.5" y="-714.3" font-family="Arial" font-size="9.00">BranchID</text>
<text text-anchor="start" x="560.5" y="-694.3" font-family="Arial" font-size="9.00">AssignedEmployeeID</text>
<text text-anchor="start" x="560.5" y="-674.3" font-family="Arial" font-size="9.00">SystemID</text>
<text text-anchor="start" x="560.5" y="-654.3" font-family="Arial" font-size="9.00">... +11 columns</text>
<polygon fill="none" stroke="#17365d" points="554,-646 554,-853 655,-853 655,-646 554,-646"/>
</g>
<!-- it.Systems -->
<g id="node4" class="node">
<title>it.Systems</title>
<polygon fill="#17365d" stroke="transparent" points="833,-496.5 833,-521.5 965,-521.5 965,-496.5 833,-496.5"/>
<text text-anchor="start" x="864.5" y="-506.3" font-family="Arial" font-weight="bold" font-size="14.00" fill="white">it.Systems</text>
<text text-anchor="start" x="838" y="-484.3" font-family="Arial" font-size="9.00">SystemID</text>
<text text-anchor="start" x="838" y="-464.3" font-family="Arial" font-size="9.00">SystemCode</text>
<text text-anchor="start" x="838" y="-444.3" font-family="Arial" font-size="9.00">SystemName</text>
<text text-anchor="start" x="838" y="-424.3" font-family="Arial" font-size="9.00">SystemType</text>
<text text-anchor="start" x="838" y="-404.3" font-family="Arial" font-size="9.00">BusinessOwnerDepartmentID</text>
<text text-anchor="start" x="838" y="-384.3" font-family="Arial" font-size="9.00">TechnicalOwnerEmployeeID</text>
<text text-anchor="start" x="838" y="-364.3" font-family="Arial" font-size="9.00">Criticality</text>
<text text-anchor="start" x="838" y="-344.3" font-family="Arial" font-size="9.00">HostingModel</text>
<text text-anchor="start" x="838" y="-324.3" font-family="Arial" font-size="9.00">... +8 columns</text>
<polygon fill="none" stroke="#17365d" points="832,-316 832,-523 966,-523 966,-316 832,-316"/>
</g>
<!-- it.ITAssets&#45;&gt;it.Systems -->
<g id="edge5" class="edge">
<title>it.ITAssets&#45;&gt;it.Systems</title>
<path fill="none" stroke="#667788" d="M655.13,-674.63C674.88,-644.84 693,-617.5 693,-617.5 693,-617.5 767.28,-545.76 826.42,-488.64"/>
<polygon fill="#667788" stroke="#667788" points="828.39,-490.14 831.73,-483.51 824.99,-486.61 828.39,-490.14"/>
<text text-anchor="middle" x="735.5" y="-620.1" font-family="Arial" font-size="8.00">SystemID</text>
</g>
<!-- core.Branches -->
<g id="node9" class="node">
<title>core.Branches</title>
<polygon fill="#fff2cc" stroke="transparent" points="847,-1010.5 847,-1035.5 951,-1035.5 951,-1010.5 847,-1010.5"/>
<text text-anchor="start" x="852" y="-1020.3" font-family="Arial" font-weight="bold" font-size="14.00" fill="#1f1f1f">core.Branches</text>
<text text-anchor="start" x="861" y="-998.3" font-family="Arial" font-size="9.00">Phase 1 reference</text>
<polygon fill="none" stroke="#d9a300" points="846,-990 846,-1037 952,-1037 952,-990 846,-990"/>
</g>
<!-- it.ITAssets&#45;&gt;core.Branches -->
<g id="edge3" class="edge">
<title>it.ITAssets&#45;&gt;core.Branches</title>
<path fill="none" stroke="#667788" d="M655.12,-794.28C715.51,-848.79 815.68,-939.2 866.44,-985.01"/>
<polygon fill="#667788" stroke="#667788" points="864.95,-986.97 871.79,-989.84 868.23,-983.33 864.95,-986.97"/>
<text text-anchor="middle" x="735.5" y="-907.1" font-family="Arial" font-size="8.00">BranchID</text>
</g>
<!-- hr.Employees -->
<g id="node11" class="node">
<title>hr.Employees</title>
<polygon fill="#fff2cc" stroke="transparent" points="1175,-714.5 1175,-739.5 1274,-739.5 1274,-714.5 1175,-714.5"/>
<text text-anchor="start" x="1180" y="-724.3" font-family="Arial" font-weight="bold" font-size="14.00" fill="#1f1f1f">hr.Employees</text>
<text text-anchor="start" x="1186.5" y="-702.3" font-family="Arial" font-size="9.00">Phase 1 reference</text>
<polygon fill="none" stroke="#d9a300" points="1173.5,-694 1173.5,-741 1274.5,-741 1274.5,-694 1173.5,-694"/>
</g>
<!-- it.ITAssets&#45;&gt;hr.Employees -->
<g id="edge4" class="edge">
<title>it.ITAssets&#45;&gt;hr.Employees</title>
<path fill="none" stroke="#667788" d="M655.25,-746.92C768.68,-741.04 1045.92,-726.68 1166,-720.45"/>
<polygon fill="#667788" stroke="#667788" points="1166.47,-722.88 1173.33,-720.07 1166.21,-717.99 1166.47,-722.88"/>
<text text-anchor="middle" x="899" y="-741.1" font-family="Arial" font-size="8.00">AssignedEmployeeID</text>
</g>
<!-- it.ITSupportTickets -->
<g id="node2" class="node">
<title>it.ITSupportTickets</title>
<polygon fill="#17365d" stroke="transparent" points="285,-1022.5 285,-1047.5 418,-1047.5 418,-1022.5 285,-1022.5"/>
<text text-anchor="start" x="290" y="-1032.3" font-family="Arial" font-weight="bold" font-size="14.00" fill="white">it.ITSupportTickets</text>
<text text-anchor="start" x="290" y="-1010.3" font-family="Arial" font-size="9.00">TicketID</text>
<text text-anchor="start" x="290" y="-990.3" font-family="Arial" font-size="9.00">TicketNumber</text>
<text text-anchor="start" x="290" y="-970.3" font-family="Arial" font-size="9.00">AssetID</text>
<text text-anchor="start" x="290" y="-950.3" font-family="Arial" font-size="9.00">SystemID</text>
<text text-anchor="start" x="290" y="-930.3" font-family="Arial" font-size="9.00">RequesterEmployeeID</text>
<text text-anchor="start" x="290" y="-910.3" font-family="Arial" font-size="9.00">AssignedToEmployeeID</text>
<text text-anchor="start" x="290" y="-890.3" font-family="Arial" font-size="9.00">BranchID</text>
<text text-anchor="start" x="290" y="-870.3" font-family="Arial" font-size="9.00">CreatedAt</text>
<text text-anchor="start" x="290" y="-850.3" font-family="Arial" font-size="9.00">... +11 columns</text>
<polygon fill="none" stroke="#17365d" points="283.5,-842 283.5,-1049 418.5,-1049 418.5,-842 283.5,-842"/>
</g>
<!-- it.ITSupportTickets&#45;&gt;it.ITAssets -->
<g id="edge8" class="edge">
<title>it.ITSupportTickets&#45;&gt;it.ITAssets</title>
<path fill="none" stroke="#667788" d="M418.74,-893.49C459.1,-862.03 509.95,-822.4 548.08,-792.69"/>
<polygon fill="#667788" stroke="#667788" points="549.6,-794.61 553.62,-788.38 546.59,-790.75 549.6,-794.61"/>
<text text-anchor="middle" x="490" y="-855.1" font-family="Arial" font-size="8.00">AssetID</text>
</g>
<!-- it.ITSupportTickets&#45;&gt;it.Systems -->
<g id="edge9" class="edge">
<title>it.ITSupportTickets&#45;&gt;it.Systems</title>
<path fill="none" stroke="#667788" d="M418.83,-928.14C509.42,-904.61 660,-865.5 660,-865.5 660,-865.5 693,-660.5 693,-660.5 693,-660.5 778,-626.5 778,-626.5 778,-626.5 811,-539.5 811,-539.5 811,-539.5 817.75,-530.19 827.49,-516.75"/>
<polygon fill="#667788" stroke="#667788" points="829.71,-517.86 831.84,-510.76 825.75,-514.99 829.71,-517.86"/>
<text text-anchor="middle" x="604.5" y="-896.1" font-family="Arial" font-size="8.00">SystemID</text>
</g>
<!-- it.ITSupportTickets&#45;&gt;core.Branches -->
<g id="edge12" class="edge">
<title>it.ITSupportTickets&#45;&gt;core.Branches</title>
<path fill="none" stroke="#667788" d="M418.77,-959.81C442.75,-964.95 464,-969.5 464,-969.5 464,-969.5 719.41,-995.39 838.36,-1007.45"/>
<polygon fill="#667788" stroke="#667788" points="838.44,-1009.92 845.65,-1008.19 838.93,-1005.05 838.44,-1009.92"/>
<text text-anchor="middle" x="604.5" y="-991.1" font-family="Arial" font-size="8.00">BranchID</text>
</g>
<!-- it.ITSupportTickets&#45;&gt;hr.Employees -->
<g id="edge10" class="edge">
<title>it.ITSupportTickets&#45;&gt;hr.Employees</title>
<path fill="none" stroke="#667788" d="M418.77,-972.33C442.75,-981.96 464,-990.5 464,-990.5 464,-990.5 811,-1049.5 811,-1049.5 811,-1049.5 987,-1049.5 987,-1049.5 987,-1049.5 1127,-969.5 1127,-969.5 1127,-969.5 1185.95,-814.75 1211.46,-747.79"/>
<polygon fill="#667788" stroke="#667788" points="1213.77,-748.62 1213.97,-741.21 1209.19,-746.88 1213.77,-748.62"/>
<text text-anchor="middle" x="735.5" y="-1046.1" font-family="Arial" font-size="8.00">RequesterEmployeeID</text>
</g>
<!-- it.ITSupportTickets&#45;&gt;hr.Employees -->
<g id="edge11" class="edge">
<title>it.ITSupportTickets&#45;&gt;hr.Employees</title>
<path fill="none" stroke="#667788" d="M418.56,-941.44C538.38,-934.12 778,-919.5 778,-919.5 778,-919.5 1046.86,-797.45 1166.62,-743.09"/>
<polygon fill="#667788" stroke="#667788" points="1167.89,-745.21 1173.25,-740.08 1165.86,-740.75 1167.89,-745.21"/>
<text text-anchor="middle" x="735.5" y="-927.1" font-family="Arial" font-size="8.00">AssignedToEmployeeID</text>
</g>
<!-- it.SystemUsers -->
<g id="node3" class="node">
<title>it.SystemUsers</title>
<polygon fill="#17365d" stroke="transparent" points="550.5,-542.5 550.5,-567.5 659.5,-567.5 659.5,-542.5 550.5,-542.5"/>
<text text-anchor="start" x="555.5" y="-552.3" font-family="Arial" font-weight="bold" font-size="14.00" fill="white">it.SystemUsers</text>
<text text-anchor="start" x="555.5" y="-530.3" font-family="Arial" font-size="9.00">SystemUserID</text>
<text text-anchor="start" x="555.5" y="-510.3" font-family="Arial" font-size="9.00">SystemID</text>
<text text-anchor="start" x="555.5" y="-490.3" font-family="Arial" font-size="9.00">EmployeeID</text>
<text text-anchor="start" x="555.5" y="-470.3" font-family="Arial" font-size="9.00">Username</text>
<text text-anchor="start" x="555.5" y="-450.3" font-family="Arial" font-size="9.00">AccountType</text>
<text text-anchor="start" x="555.5" y="-430.3" font-family="Arial" font-size="9.00">PrivilegeLevel</text>
<text text-anchor="start" x="555.5" y="-410.3" font-family="Arial" font-size="9.00">AccountStatus</text>
<text text-anchor="start" x="555.5" y="-390.3" font-family="Arial" font-size="9.00">CreatedDate</text>
<text text-anchor="start" x="555.5" y="-370.3" font-family="Arial" font-size="9.00">... +4 columns</text>
<polygon fill="none" stroke="#17365d" points="549,-362 549,-569 660,-569 660,-362 549,-362"/>
</g>
<!-- it.SystemUsers&#45;&gt;it.Systems -->
<g id="edge6" class="edge">
<title>it.SystemUsers&#45;&gt;it.Systems</title>
<path fill="none" stroke="#667788" d="M660.17,-456.9C706.6,-449.6 773.64,-439.06 824.71,-431.03"/>
<polygon fill="#667788" stroke="#667788" points="825.27,-433.42 831.81,-429.91 824.51,-428.58 825.27,-433.42"/>
<text text-anchor="middle" x="735.5" y="-453.1" font-family="Arial" font-size="8.00">SystemID</text>
</g>
<!-- it.SystemUsers&#45;&gt;hr.Employees -->
<g id="edge7" class="edge">
<title>it.SystemUsers&#45;&gt;hr.Employees</title>
<path fill="none" stroke="#667788" d="M660.32,-486.74C794.22,-538.6 1127,-667.5 1127,-667.5 1127,-667.5 1148.65,-678.78 1171.39,-690.62"/>
<polygon fill="#667788" stroke="#667788" points="1170.47,-692.9 1177.81,-693.96 1172.73,-688.56 1170.47,-692.9"/>
<text text-anchor="middle" x="899" y="-614.1" font-family="Arial" font-size="8.00">EmployeeID</text>
</g>
<!-- core.Departments -->
<g id="node10" class="node">
<title>core.Departments</title>
<polygon fill="#fff2cc" stroke="transparent" points="1161,-134.5 1161,-159.5 1287,-159.5 1287,-134.5 1161,-134.5"/>
<text text-anchor="start" x="1166" y="-144.3" font-family="Arial" font-weight="bold" font-size="14.00" fill="#1f1f1f">core.Departments</text>
<text text-anchor="start" x="1186" y="-122.3" font-family="Arial" font-size="9.00">Phase 1 reference</text>
<polygon fill="none" stroke="#d9a300" points="1160,-114 1160,-161 1288,-161 1288,-114 1160,-114"/>
</g>
<!-- it.Systems&#45;&gt;core.Departments -->
<g id="edge1" class="edge">
<title>it.Systems&#45;&gt;core.Departments</title>
<path fill="none" stroke="#667788" d="M950.54,-315.89C983.34,-248.66 1020,-173.5 1020,-173.5 1020,-173.5 1094.14,-160.35 1152.81,-149.95"/>
<polygon fill="#667788" stroke="#667788" points="1153.42,-152.33 1159.88,-148.69 1152.56,-147.5 1153.42,-152.33"/>
<text text-anchor="middle" x="1073.5" y="-176.1" font-family="Arial" font-size="8.00">BusinessOwnerDepartmentID</text>
</g>
<!-- it.Systems&#45;&gt;hr.Employees -->
<g id="edge2" class="edge">
<title>it.Systems&#45;&gt;hr.Employees</title>
<path fill="none" stroke="#667788" d="M966.27,-456.28C1033.27,-493.47 1127,-545.5 1127,-545.5 1127,-545.5 1178.8,-638.32 1206.3,-687.58"/>
<polygon fill="#667788" stroke="#667788" points="1204.3,-689.03 1209.85,-693.94 1208.58,-686.64 1204.3,-689.03"/>
<text text-anchor="middle" x="1073.5" y="-548.1" font-family="Arial" font-size="8.00">TechnicalOwnerEmployeeID</text>
</g>
<!-- security.SecurityAlerts -->
<g id="node5" class="node">
<title>security.SecurityAlerts</title>
<polygon fill="#17365d" stroke="transparent" points="273,-699.5 273,-724.5 430,-724.5 430,-699.5 273,-699.5"/>
<text text-anchor="start" x="278" y="-709.3" font-family="Arial" font-weight="bold" font-size="14.00" fill="white">security.SecurityAlerts</text>
<text text-anchor="start" x="278" y="-687.3" font-family="Arial" font-size="9.00">AlertID</text>
<text text-anchor="start" x="278" y="-667.3" font-family="Arial" font-size="9.00">AlertNumber</text>
<text text-anchor="start" x="278" y="-647.3" font-family="Arial" font-size="9.00">AlertTimestamp</text>
<text text-anchor="start" x="278" y="-627.3" font-family="Arial" font-size="9.00">AssetID</text>
<text text-anchor="start" x="278" y="-607.3" font-family="Arial" font-size="9.00">SystemUserID</text>
<text text-anchor="start" x="278" y="-587.3" font-family="Arial" font-size="9.00">AlertSource</text>
<text text-anchor="start" x="278" y="-567.3" font-family="Arial" font-size="9.00">AlertType</text>
<text text-anchor="start" x="278" y="-547.3" font-family="Arial" font-size="9.00">Severity</text>
<text text-anchor="start" x="278" y="-527.3" font-family="Arial" font-size="9.00">... +9 columns</text>
<polygon fill="none" stroke="#17365d" points="271.5,-519 271.5,-726 430.5,-726 430.5,-519 271.5,-519"/>
</g>
<!-- security.SecurityAlerts&#45;&gt;it.ITAssets -->
<g id="edge18" class="edge">
<title>security.SecurityAlerts&#45;&gt;it.ITAssets</title>
<path fill="none" stroke="#667788" d="M430.54,-662.16C468.4,-681.28 512.93,-703.76 547.33,-721.13"/>
<polygon fill="#667788" stroke="#667788" points="546.27,-723.35 553.63,-724.32 548.48,-718.97 546.27,-723.35"/>
<text text-anchor="middle" x="490" y="-707.1" font-family="Arial" font-size="8.00">AssetID</text>
</g>
<!-- security.SecurityAlerts&#45;&gt;it.SystemUsers -->
<g id="edge19" class="edge">
<title>security.SecurityAlerts&#45;&gt;it.SystemUsers</title>
<path fill="none" stroke="#667788" d="M430.54,-573.47C466.63,-550.94 508.79,-524.62 542.45,-503.61"/>
<polygon fill="#667788" stroke="#667788" points="544,-505.53 548.64,-499.75 541.4,-501.38 544,-505.53"/>
<text text-anchor="middle" x="490" y="-551.1" font-family="Arial" font-size="8.00">SystemUserID</text>
</g>
<!-- security.SecurityAlerts&#45;&gt;hr.Employees -->
<g id="edge20" class="edge">
<title>security.SecurityAlerts&#45;&gt;hr.Employees</title>
<path fill="none" stroke="#667788" d="M430.52,-625.3C521.77,-628.56 660,-633.5 660,-633.5 660,-633.5 1022.89,-687.64 1165.98,-708.99"/>
<polygon fill="#667788" stroke="#667788" points="1165.75,-711.44 1173.04,-710.05 1166.48,-706.59 1165.75,-711.44"/>
<text text-anchor="middle" x="735.5" y="-653.1" font-family="Arial" font-size="8.00">AssignedToEmployeeID</text>
</g>
<!-- security.SecurityControls -->
<g id="node6" class="node">
<title>security.SecurityControls</title>
<polygon fill="#17365d" stroke="transparent" points="812,-180.5 812,-205.5 986,-205.5 986,-180.5 812,-180.5"/>
<text text-anchor="start" x="817" y="-190.3" font-family="Arial" font-weight="bold" font-size="14.00" fill="white">security.SecurityControls</text>
<text text-anchor="start" x="817" y="-168.3" font-family="Arial" font-size="9.00">ControlID</text>
<text text-anchor="start" x="817" y="-148.3" font-family="Arial" font-size="9.00">ControlCode</text>
<text text-anchor="start" x="817" y="-128.3" font-family="Arial" font-size="9.00">ControlName</text>
<text text-anchor="start" x="817" y="-108.3" font-family="Arial" font-size="9.00">ControlDomain</text>
<text text-anchor="start" x="817" y="-88.3" font-family="Arial" font-size="9.00">ControlType</text>
<text text-anchor="start" x="817" y="-68.3" font-family="Arial" font-size="9.00">ControlOwnerDepartmentID</text>
<text text-anchor="start" x="817" y="-48.3" font-family="Arial" font-size="9.00">ControlOwnerEmployeeID</text>
<text text-anchor="start" x="817" y="-28.3" font-family="Arial" font-size="9.00">ImplementationStatus</text>
<text text-anchor="start" x="817" y="-8.3" font-family="Arial" font-size="9.00">... +6 columns</text>
<polygon fill="none" stroke="#17365d" points="811,0 811,-207 987,-207 987,0 811,0"/>
</g>
<!-- security.SecurityControls&#45;&gt;core.Departments -->
<g id="edge13" class="edge">
<title>security.SecurityControls&#45;&gt;core.Departments</title>
<path fill="none" stroke="#667788" d="M987.11,-111.94C1051.13,-118.15 1127,-125.5 1127,-125.5 1127,-125.5 1138.13,-126.89 1152.8,-128.73"/>
<polygon fill="#667788" stroke="#667788" points="1152.52,-131.16 1159.77,-129.6 1153.13,-126.3 1152.52,-131.16"/>
<text text-anchor="middle" x="1073.5" y="-128.1" font-family="Arial" font-size="8.00">ControlOwnerDepartmentID</text>
</g>
<!-- security.SecurityControls&#45;&gt;hr.Employees -->
<g id="edge14" class="edge">
<title>security.SecurityControls&#45;&gt;hr.Employees</title>
<path fill="none" stroke="#667788" d="M987.21,-162.37C1005.82,-174.93 1020,-184.5 1020,-184.5 1020,-184.5 1127,-217.5 1127,-217.5 1127,-217.5 1196.14,-577.62 1217.07,-686.61"/>
<polygon fill="#667788" stroke="#667788" points="1214.71,-687.31 1218.43,-693.72 1219.52,-686.38 1214.71,-687.31"/>
<text text-anchor="middle" x="1073.5" y="-220.1" font-family="Arial" font-size="8.00">ControlOwnerEmployeeID</text>
</g>
<!-- security.SecurityIncidents -->
<g id="node7" class="node">
<title>security.SecurityIncidents</title>
<polygon fill="#17365d" stroke="transparent" points="1,-853.5 1,-878.5 179,-878.5 179,-853.5 1,-853.5"/>
<text text-anchor="start" x="6" y="-863.3" font-family="Arial" font-weight="bold" font-size="14.00" fill="white">security.SecurityIncidents</text>
<text text-anchor="start" x="6" y="-841.3" font-family="Arial" font-size="9.00">IncidentID</text>
<text text-anchor="start" x="6" y="-821.3" font-family="Arial" font-size="9.00">IncidentNumber</text>
<text text-anchor="start" x="6" y="-801.3" font-family="Arial" font-size="9.00">AlertID</text>
<text text-anchor="start" x="6" y="-781.3" font-family="Arial" font-size="9.00">AssetID</text>
<text text-anchor="start" x="6" y="-761.3" font-family="Arial" font-size="9.00">SystemID</text>
<text text-anchor="start" x="6" y="-741.3" font-family="Arial" font-size="9.00">BranchID</text>
<text text-anchor="start" x="6" y="-721.3" font-family="Arial" font-size="9.00">ReportedByEmployeeID</text>
<text text-anchor="start" x="6" y="-701.3" font-family="Arial" font-size="9.00">AssignedToEmployeeID</text>
<text text-anchor="start" x="6" y="-681.3" font-family="Arial" font-size="9.00">... +15 columns</text>
<polygon fill="none" stroke="#17365d" points="0,-673 0,-880 180,-880 180,-673 0,-673"/>
</g>
<!-- security.SecurityIncidents&#45;&gt;it.ITAssets -->
<g id="edge22" class="edge">
<title>security.SecurityIncidents&#45;&gt;it.ITAssets</title>
<path fill="none" stroke="#667788" d="M180.27,-771.8C285.82,-766.24 458.31,-757.15 546.97,-752.48"/>
<polygon fill="#667788" stroke="#667788" points="547.12,-754.92 553.98,-752.11 546.86,-750.03 547.12,-754.92"/>
<text text-anchor="middle" x="351" y="-769.1" font-family="Arial" font-size="8.00">AssetID</text>
</g>
<!-- security.SecurityIncidents&#45;&gt;it.Systems -->
<g id="edge23" class="edge">
<title>security.SecurityIncidents&#45;&gt;it.Systems</title>
<path fill="none" stroke="#667788" d="M128.19,-672.79C180.89,-525.79 271,-274.5 271,-274.5 271,-274.5 431,-274.5 431,-274.5 431,-274.5 778,-345.5 778,-345.5 778,-345.5 800.22,-359.2 825.54,-374.82"/>
<polygon fill="#667788" stroke="#667788" points="824.44,-377.02 831.68,-378.6 827.01,-372.84 824.44,-377.02"/>
<text text-anchor="middle" x="490" y="-294.1" font-family="Arial" font-size="8.00">SystemID</text>
</g>
<!-- security.SecurityIncidents&#45;&gt;security.SecurityAlerts -->
<g id="edge21" class="edge">
<title>security.SecurityIncidents&#45;&gt;security.SecurityAlerts</title>
<path fill="none" stroke="#667788" d="M180.13,-723.5C207.61,-707.16 237.79,-689.22 264.98,-673.05"/>
<polygon fill="#667788" stroke="#667788" points="266.33,-675.1 271.1,-669.41 263.83,-670.89 266.33,-675.1"/>
<text text-anchor="middle" x="225.5" y="-702.1" font-family="Arial" font-size="8.00">AlertID</text>
</g>
<!-- security.SecurityIncidents&#45;&gt;security.SecurityControls -->
<g id="edge27" class="edge">
<title>security.SecurityIncidents&#45;&gt;security.SecurityControls</title>
<path fill="none" stroke="#667788" d="M121.55,-672.83C157.69,-550.2 213,-362.5 213,-362.5 213,-362.5 271,-268.5 271,-268.5 271,-268.5 628.91,-174.31 803.9,-128.26"/>
<polygon fill="#667788" stroke="#667788" points="804.67,-130.59 810.82,-126.44 803.43,-125.85 804.67,-130.59"/>
<text text-anchor="middle" x="490" y="-221.1" font-family="Arial" font-size="8.00">ControlID</text>
</g>
<!-- security.SecurityIncidents&#45;&gt;core.Branches -->
<g id="edge24" class="edge">
<title>security.SecurityIncidents&#45;&gt;core.Branches</title>
<path fill="none" stroke="#667788" d="M156.49,-880.2C207.96,-961.69 271,-1061.5 271,-1061.5 271,-1061.5 431,-1061.5 431,-1061.5 431,-1061.5 712.6,-1032.56 838.46,-1019.62"/>
<polygon fill="#667788" stroke="#667788" points="839.08,-1022.02 845.79,-1018.87 838.57,-1017.15 839.08,-1022.02"/>
<text text-anchor="middle" x="490" y="-1060.1" font-family="Arial" font-size="8.00">BranchID</text>
</g>
<!-- security.SecurityIncidents&#45;&gt;hr.Employees -->
<g id="edge25" class="edge">
<title>security.SecurityIncidents&#45;&gt;hr.Employees</title>
<path fill="none" stroke="#667788" d="M145.75,-880.18C178.19,-941.58 213,-1007.5 213,-1007.5 213,-1007.5 271,-1080.5 271,-1080.5 271,-1080.5 350,-1174.5 350,-1174.5 350,-1174.5 350,-1174.5 900,-1174.5 900,-1174.5 1127,-1018.5 1127,-1018.5 1127,-1018.5 1188.79,-824.78 1213.22,-748.16"/>
<polygon fill="#667788" stroke="#667788" points="1215.67,-748.53 1215.47,-741.12 1211.01,-747.04 1215.67,-748.53"/>
<text text-anchor="middle" x="604.5" y="-1177.1" font-family="Arial" font-size="8.00">ReportedByEmployeeID</text>
</g>
<!-- security.SecurityIncidents&#45;&gt;hr.Employees -->
<g id="edge26" class="edge">
<title>security.SecurityIncidents&#45;&gt;hr.Employees</title>
<path fill="none" stroke="#667788" d="M138.87,-880.08C173.05,-954.04 213,-1040.5 213,-1040.5 213,-1040.5 271,-1146.5 271,-1146.5 271,-1146.5 350,-1233.5 350,-1233.5 350,-1233.5 350,-1233.5 900,-1233.5 900,-1233.5 987,-1193.5 987,-1193.5 987,-1193.5 1127,-1073.5 1127,-1073.5 1127,-1073.5 1191.51,-834.28 1214.77,-748.04"/>
<polygon fill="#667788" stroke="#667788" points="1217.17,-748.53 1216.63,-741.13 1212.44,-747.25 1217.17,-748.53"/>
<text text-anchor="middle" x="604.5" y="-1236.1" font-family="Arial" font-size="8.00">AssignedToEmployeeID</text>
</g>
<!-- security.Vulnerabilities -->
<g id="node8" class="node">
<title>security.Vulnerabilities</title>
<polygon fill="#17365d" stroke="transparent" points="272,-467.5 272,-492.5 430,-492.5 430,-467.5 272,-467.5"/>
<text text-anchor="start" x="277" y="-477.3" font-family="Arial" font-weight="bold" font-size="14.00" fill="white">security.Vulnerabilities</text>
<text text-anchor="start" x="277" y="-455.3" font-family="Arial" font-size="9.00">VulnerabilityID</text>
<text text-anchor="start" x="277" y="-435.3" font-family="Arial" font-size="9.00">VulnerabilityNumber</text>
<text text-anchor="start" x="277" y="-415.3" font-family="Arial" font-size="9.00">AssetID</text>
<text text-anchor="start" x="277" y="-395.3" font-family="Arial" font-size="9.00">SystemID</text>
<text text-anchor="start" x="277" y="-375.3" font-family="Arial" font-size="9.00">DetectedDate</text>
<text text-anchor="start" x="277" y="-355.3" font-family="Arial" font-size="9.00">VulnerabilityTitle</text>
<text text-anchor="start" x="277" y="-335.3" font-family="Arial" font-size="9.00">CVEIdentifier</text>
<text text-anchor="start" x="277" y="-315.3" font-family="Arial" font-size="9.00">Severity</text>
<text text-anchor="start" x="277" y="-295.3" font-family="Arial" font-size="9.00">... +9 columns</text>
<polygon fill="none" stroke="#17365d" points="271,-287 271,-494 431,-494 431,-287 271,-287"/>
</g>
<!-- security.Vulnerabilities&#45;&gt;it.ITAssets -->
<g id="edge15" class="edge">
<title>security.Vulnerabilities&#45;&gt;it.ITAssets</title>
<path fill="none" stroke="#667788" d="M431.12,-445.98C473.06,-475.39 516,-505.5 516,-505.5 516,-505.5 540.72,-574.44 563.89,-639.03"/>
<polygon fill="#667788" stroke="#667788" points="561.6,-639.91 566.27,-645.67 566.21,-638.25 561.6,-639.91"/>
<text text-anchor="middle" x="490" y="-508.1" font-family="Arial" font-size="8.00">AssetID</text>
</g>
<!-- security.Vulnerabilities&#45;&gt;it.Systems -->
<g id="edge16" class="edge">
<title>security.Vulnerabilities&#45;&gt;it.Systems</title>
<path fill="none" stroke="#667788" d="M431.28,-370.38C486.02,-356.49 549,-340.5 549,-340.5 549,-340.5 660,-340.5 660,-340.5 660,-340.5 755.05,-372.05 825.02,-395.27"/>
<polygon fill="#667788" stroke="#667788" points="824.29,-397.61 831.7,-397.49 825.83,-392.96 824.29,-397.61"/>
<text text-anchor="middle" x="604.5" y="-343.1" font-family="Arial" font-size="8.00">SystemID</text>
</g>
<!-- security.Vulnerabilities&#45;&gt;hr.Employees -->
<g id="edge17" class="edge">
<title>security.Vulnerabilities&#45;&gt;hr.Employees</title>
<path fill="none" stroke="#667788" d="M431,-356.64C449.54,-348.7 464,-342.5 464,-342.5 464,-342.5 811,-303.5 811,-303.5 811,-303.5 987,-303.5 987,-303.5 987,-303.5 1127,-479.5 1127,-479.5 1127,-479.5 1184.87,-622.96 1210.75,-687.12"/>
<polygon fill="#667788" stroke="#667788" points="1208.55,-688.23 1213.44,-693.81 1213.1,-686.4 1208.55,-688.23"/>
<text text-anchor="middle" x="735.5" y="-319.1" font-family="Arial" font-size="8.00">AssignedToEmployeeID</text>
</g>
</g>
</svg>
